<?xml version="1.0" encoding="utf-8" standalone="no"?>
<!DOCTYPE svg PUBLIC "-//W3C//DTD SVG 1.1//EN"
  "http://www.w3.org/Graphics/SVG/1.1/DTD/svg11.dtd">
<svg xmlns:xlink="http://www.w3.org/1999/xlink" width="799.506062pt" height="375.83625pt" viewBox="0 0 799.506062 375.83625" xmlns="http://www.w3.org/2000/svg" version="1.1">
 <metadata>
  <rdf:RDF xmlns:dc="http://purl.org/dc/elements/1.1/" xmlns:cc="http://creativecommons.org/ns#" xmlns:rdf="http://www.w3.org/1999/02/22-rdf-syntax-ns#">
   <cc:Work>
    <dc:type rdf:resource="http://purl.org/dc/dcmitype/StillImage"/>
    <dc:date>2025-08-27T11:11:39.408804</dc:date>
    <dc:format>image/svg+xml</dc:format>
    <dc:creator>
     <cc:Agent>
      <dc:title>Matplotlib v3.10.5, https://matplotlib.org/</dc:title>
     </cc:Agent>
    </dc:creator>
   </cc:Work>
  </rdf:RDF>
 </metadata>
 <defs>
  <style type="text/css">*{stroke-linejoin: round; stroke-linecap: butt}</style>
 </defs>
 <g id="figure_1">
  <g id="patch_1">
   <path d="M 0 375.83625 
L 799.506062 375.83625 
L 799.506062 0 
L 0 0 
z
" style="fill: #ffffff"/>
  </g>
  <g id="axes_1">
   <g id="patch_2">
    <path d="M 43.78125 354.958125 
L 713.38125 354.958125 
L 713.38125 22.318125 
L 43.78125 22.318125 
z
" style="fill: #ffffff"/>
   </g>
   <g id="patch_3">
    <path d="M 74.217614 354.958125 
L 79.097191 354.958125 
L 79.097191 146.655889 
L 74.217614 146.655889 
z
" clip-path="url(#p720e582645)" style="fill: #ff0000"/>
   </g>
   <g id="patch_4">
    <path d="M 80.317085 354.958125 
L 85.196663 354.958125 
L 85.196663 129.273076 
L 80.317085 129.273076 
z
" clip-path="url(#p720e582645)" style="fill: #ff0000"/>
   </g>
   <g id="patch_5">
    <path d="M 86.416557 354.958125 
L 91.296134 354.958125 
L 91.296134 139.089655 
L 86.416557 139.089655 
z
" clip-path="url(#p720e582645)" style="fill: #ff0000"/>
   </g>
   <g id="patch_6">
    <path d="M 92.516029 354.958125 
L 97.395606 354.958125 
L 97.395606 131.05293 
L 92.516029 131.05293 
z
" clip-path="url(#p720e582645)" style="fill: #ff0000"/>
   </g>
   <g id="patch_7">
    <path d="M 98.6155 354.958125 
L 103.495078 354.958125 
L 103.495078 146.999416 
L 98.6155 146.999416 
z
" clip-path="url(#p720e582645)" style="fill: #ff0000"/>
   </g>
   <g id="patch_8">
    <path d="M 104.714972 354.958125 
L 109.594549 354.958125 
L 109.594549 160.052438 
L 104.714972 160.052438 
z
" clip-path="url(#p720e582645)" style="fill: #ff0000"/>
   </g>
   <g id="patch_9">
    <path d="M 110.814444 354.958125 
L 115.694021 354.958125 
L 115.694021 160.341936 
L 110.814444 160.341936 
z
" clip-path="url(#p720e582645)" style="fill: #ff0000"/>
   </g>
   <g id="patch_10">
    <path d="M 116.913915 354.958125 
L 121.793493 354.958125 
L 121.793493 161.04166 
L 116.913915 161.04166 
z
" clip-path="url(#p720e582645)" style="fill: #ff0000"/>
   </g>
   <g id="patch_11">
    <path d="M 123.013387 354.958125 
L 127.892964 354.958125 
L 127.892964 167.072797 
L 123.013387 167.072797 
z
" clip-path="url(#p720e582645)" style="fill: #ff0000"/>
   </g>
   <g id="patch_12">
    <path d="M 129.112859 354.958125 
L 133.992436 354.958125 
L 133.992436 144.110719 
L 129.112859 144.110719 
z
" clip-path="url(#p720e582645)" style="fill: #ff0000"/>
   </g>
   <g id="patch_13">
    <path d="M 135.21233 354.958125 
L 140.091908 354.958125 
L 140.091908 131.223311 
L 135.21233 131.223311 
z
" clip-path="url(#p720e582645)" style="fill: #ff0000"/>
   </g>
   <g id="patch_14">
    <path d="M 141.311802 354.958125 
L 146.191379 354.958125 
L 146.191379 139.150034 
L 141.311802 139.150034 
z
" clip-path="url(#p720e582645)" style="fill: #ff0000"/>
   </g>
   <g id="patch_15">
    <path d="M 147.411274 354.958125 
L 152.290851 354.958125 
L 152.290851 152.716445 
L 147.411274 152.716445 
z
" clip-path="url(#p720e582645)" style="fill: #ff0000"/>
   </g>
   <g id="patch_16">
    <path d="M 153.510745 354.958125 
L 158.390323 354.958125 
L 158.390323 162.885911 
L 153.510745 162.885911 
z
" clip-path="url(#p720e582645)" style="fill: #ff0000"/>
   </g>
   <g id="patch_17">
    <path d="M 159.610217 354.958125 
L 164.489794 354.958125 
L 164.489794 162.859617 
L 159.610217 162.859617 
z
" clip-path="url(#p720e582645)" style="fill: #ff0000"/>
   </g>
   <g id="patch_18">
    <path d="M 165.709689 354.958125 
L 170.589266 354.958125 
L 170.589266 112.33142 
L 165.709689 112.33142 
z
" clip-path="url(#p720e582645)" style="fill: #ff0000"/>
   </g>
   <g id="patch_19">
    <path d="M 171.80916 354.958125 
L 176.688738 354.958125 
L 176.688738 139.921644 
L 171.80916 139.921644 
z
" clip-path="url(#p720e582645)" style="fill: #ff0000"/>
   </g>
   <g id="patch_20">
    <path d="M 177.908632 354.958125 
L 182.788209 354.958125 
L 182.788209 130.878186 
L 177.908632 130.878186 
z
" clip-path="url(#p720e582645)" style="fill: #ff0000"/>
   </g>
   <g id="patch_21">
    <path d="M 184.008104 354.958125 
L 188.887681 354.958125 
L 188.887681 150.051999 
L 184.008104 150.051999 
z
" clip-path="url(#p720e582645)" style="fill: #ff0000"/>
   </g>
   <g id="patch_22">
    <path d="M 190.107575 354.958125 
L 194.987153 354.958125 
L 194.987153 124.682918 
L 190.107575 124.682918 
z
" clip-path="url(#p720e582645)" style="fill: #ff0000"/>
   </g>
   <g id="patch_23">
    <path d="M 196.207047 354.958125 
L 201.086624 354.958125 
L 201.086624 138.28939 
L 196.207047 138.28939 
z
" clip-path="url(#p720e582645)" style="fill: #ff0000"/>
   </g>
   <g id="patch_24">
    <path d="M 202.306519 354.958125 
L 207.186096 354.958125 
L 207.186096 165.087239 
L 202.306519 165.087239 
z
" clip-path="url(#p720e582645)" style="fill: #ff0000"/>
   </g>
   <g id="patch_25">
    <path d="M 208.40599 354.958125 
L 213.285568 354.958125 
L 213.285568 134.740769 
L 208.40599 134.740769 
z
" clip-path="url(#p720e582645)" style="fill: #ff0000"/>
   </g>
   <g id="patch_26">
    <path d="M 214.505462 354.958125 
L 219.385039 354.958125 
L 219.385039 130.768199 
L 214.505462 130.768199 
z
" clip-path="url(#p720e582645)" style="fill: #ff0000"/>
   </g>
   <g id="patch_27">
    <path d="M 220.604934 354.958125 
L 225.484511 354.958125 
L 225.484511 134.843585 
L 220.604934 134.843585 
z
" clip-path="url(#p720e582645)" style="fill: #ff0000"/>
   </g>
   <g id="patch_28">
    <path d="M 226.704405 354.958125 
L 231.583983 354.958125 
L 231.583983 151.383639 
L 226.704405 151.383639 
z
" clip-path="url(#p720e582645)" style="fill: #ff0000"/>
   </g>
   <g id="patch_29">
    <path d="M 232.803877 354.958125 
L 237.683454 354.958125 
L 237.683454 130.173594 
L 232.803877 130.173594 
z
" clip-path="url(#p720e582645)" style="fill: #ff0000"/>
   </g>
   <g id="patch_30">
    <path d="M 238.903349 354.958125 
L 243.782926 354.958125 
L 243.782926 155.418202 
L 238.903349 155.418202 
z
" clip-path="url(#p720e582645)" style="fill: #ff0000"/>
   </g>
   <g id="patch_31">
    <path d="M 245.00282 354.958125 
L 249.882398 354.958125 
L 249.882398 148.431409 
L 245.00282 148.431409 
z
" clip-path="url(#p720e582645)" style="fill: #ff0000"/>
   </g>
   <g id="patch_32">
    <path d="M 251.102292 354.958125 
L 255.981869 354.958125 
L 255.981869 156.702898 
L 251.102292 156.702898 
z
" clip-path="url(#p720e582645)" style="fill: #ff0000"/>
   </g>
   <g id="patch_33">
    <path d="M 257.201764 354.958125 
L 262.081341 354.958125 
L 262.081341 162.95267 
L 257.201764 162.95267 
z
" clip-path="url(#p720e582645)" style="fill: #ff0000"/>
   </g>
   <g id="patch_34">
    <path d="M 263.301235 354.958125 
L 268.180813 354.958125 
L 268.180813 164.518914 
L 263.301235 164.518914 
z
" clip-path="url(#p720e582645)" style="fill: #ff0000"/>
   </g>
   <g id="patch_35">
    <path d="M 269.400707 354.958125 
L 274.280284 354.958125 
L 274.280284 155.116306 
L 269.400707 155.116306 
z
" clip-path="url(#p720e582645)" style="fill: #ff0000"/>
   </g>
   <g id="patch_36">
    <path d="M 275.500179 354.958125 
L 280.379756 354.958125 
L 280.379756 127.108338 
L 275.500179 127.108338 
z
" clip-path="url(#p720e582645)" style="fill: #ff0000"/>
   </g>
   <g id="patch_37">
    <path d="M 281.59965 354.958125 
L 286.479228 354.958125 
L 286.479228 161.708049 
L 281.59965 161.708049 
z
" clip-path="url(#p720e582645)" style="fill: #ff0000"/>
   </g>
   <g id="patch_38">
    <path d="M 287.699122 354.958125 
L 292.578699 354.958125 
L 292.578699 143.757991 
L 287.699122 143.757991 
z
" clip-path="url(#p720e582645)" style="fill: #ff0000"/>
   </g>
   <g id="patch_39">
    <path d="M 293.798594 354.958125 
L 298.678171 354.958125 
L 298.678171 137.602711 
L 293.798594 137.602711 
z
" clip-path="url(#p720e582645)" style="fill: #ff0000"/>
   </g>
   <g id="patch_40">
    <path d="M 299.898065 354.958125 
L 304.777643 354.958125 
L 304.777643 150.180692 
L 299.898065 150.180692 
z
" clip-path="url(#p720e582645)" style="fill: #ff0000"/>
   </g>
   <g id="patch_41">
    <path d="M 305.997537 354.958125 
L 310.877114 354.958125 
L 310.877114 147.745897 
L 305.997537 147.745897 
z
" clip-path="url(#p720e582645)" style="fill: #ff0000"/>
   </g>
   <g id="patch_42">
    <path d="M 312.097009 354.958125 
L 316.976586 354.958125 
L 316.976586 153.322916 
L 312.097009 153.322916 
z
" clip-path="url(#p720e582645)" style="fill: #ff0000"/>
   </g>
   <g id="patch_43">
    <path d="M 318.19648 354.958125 
L 323.076058 354.958125 
L 323.076058 152.295721 
L 318.19648 152.295721 
z
" clip-path="url(#p720e582645)" style="fill: #ff0000"/>
   </g>
   <g id="patch_44">
    <path d="M 324.295952 354.958125 
L 329.175529 354.958125 
L 329.175529 169.179574 
L 324.295952 169.179574 
z
" clip-path="url(#p720e582645)" style="fill: #ff0000"/>
   </g>
   <g id="patch_45">
    <path d="M 330.395424 354.958125 
L 335.275001 354.958125 
L 335.275001 162.285316 
L 330.395424 162.285316 
z
" clip-path="url(#p720e582645)" style="fill: #ff0000"/>
   </g>
   <g id="patch_46">
    <path d="M 336.494895 354.958125 
L 341.374473 354.958125 
L 341.374473 179.107639 
L 336.494895 179.107639 
z
" clip-path="url(#p720e582645)" style="fill: #ff0000"/>
   </g>
   <g id="patch_47">
    <path d="M 342.594367 354.958125 
L 347.473944 354.958125 
L 347.473944 135.300483 
L 342.594367 135.300483 
z
" clip-path="url(#p720e582645)" style="fill: #ff0000"/>
   </g>
   <g id="patch_48">
    <path d="M 348.693839 354.958125 
L 353.573416 354.958125 
L 353.573416 146.601702 
L 348.693839 146.601702 
z
" clip-path="url(#p720e582645)" style="fill: #ff0000"/>
   </g>
   <g id="patch_49">
    <path d="M 354.79331 354.958125 
L 359.672888 354.958125 
L 359.672888 135.260077 
L 354.79331 135.260077 
z
" clip-path="url(#p720e582645)" style="fill: #ff0000"/>
   </g>
   <g id="patch_50">
    <path d="M 360.892782 354.958125 
L 365.772359 354.958125 
L 365.772359 135.10483 
L 360.892782 135.10483 
z
" clip-path="url(#p720e582645)" style="fill: #ff0000"/>
   </g>
   <g id="patch_51">
    <path d="M 366.992254 354.958125 
L 371.871831 354.958125 
L 371.871831 150.91489 
L 366.992254 150.91489 
z
" clip-path="url(#p720e582645)" style="fill: #ff0000"/>
   </g>
   <g id="patch_52">
    <path d="M 373.091725 354.958125 
L 377.971303 354.958125 
L 377.971303 164.634114 
L 373.091725 164.634114 
z
" clip-path="url(#p720e582645)" style="fill: #ff0000"/>
   </g>
   <g id="patch_53">
    <path d="M 379.191197 354.958125 
L 384.070775 354.958125 
L 384.070775 145.071054 
L 379.191197 145.071054 
z
" clip-path="url(#p720e582645)" style="fill: #ff0000"/>
   </g>
   <g id="patch_54">
    <path d="M 385.290669 354.958125 
L 390.170246 354.958125 
L 390.170246 149.733644 
L 385.290669 149.733644 
z
" clip-path="url(#p720e582645)" style="fill: #ff0000"/>
   </g>
   <g id="patch_55">
    <path d="M 391.390141 354.958125 
L 396.269718 354.958125 
L 396.269718 151.599423 
L 391.390141 151.599423 
z
" clip-path="url(#p720e582645)" style="fill: #ff0000"/>
   </g>
   <g id="patch_56">
    <path d="M 397.489612 354.958125 
L 402.36919 354.958125 
L 402.36919 138.967385 
L 397.489612 138.967385 
z
" clip-path="url(#p720e582645)" style="fill: #ff0000"/>
   </g>
   <g id="patch_57">
    <path d="M 403.589084 354.958125 
L 408.468661 354.958125 
L 408.468661 131.845175 
L 403.589084 131.845175 
z
" clip-path="url(#p720e582645)" style="fill: #ff0000"/>
   </g>
   <g id="patch_58">
    <path d="M 409.688556 354.958125 
L 414.568133 354.958125 
L 414.568133 147.064432 
L 409.688556 147.064432 
z
" clip-path="url(#p720e582645)" style="fill: #ff0000"/>
   </g>
   <g id="patch_59">
    <path d="M 415.788027 354.958125 
L 420.667605 354.958125 
L 420.667605 143.077979 
L 415.788027 143.077979 
z
" clip-path="url(#p720e582645)" style="fill: #ff0000"/>
   </g>
   <g id="patch_60">
    <path d="M 421.887499 354.958125 
L 426.767076 354.958125 
L 426.767076 145.577704 
L 421.887499 145.577704 
z
" clip-path="url(#p720e582645)" style="fill: #ff0000"/>
   </g>
   <g id="patch_61">
    <path d="M 427.986971 354.958125 
L 432.866548 354.958125 
L 432.866548 143.26312 
L 427.986971 143.26312 
z
" clip-path="url(#p720e582645)" style="fill: #ff0000"/>
   </g>
   <g id="patch_62">
    <path d="M 434.086442 354.958125 
L 438.96602 354.958125 
L 438.96602 150.31238 
L 434.086442 150.31238 
z
" clip-path="url(#p720e582645)" style="fill: #ff0000"/>
   </g>
   <g id="patch_63">
    <path d="M 440.185914 354.958125 
L 445.065491 354.958125 
L 445.065491 142.928148 
L 440.185914 142.928148 
z
" clip-path="url(#p720e582645)" style="fill: #ff0000"/>
   </g>
   <g id="patch_64">
    <path d="M 446.285386 354.958125 
L 451.164963 354.958125 
L 451.164963 148.503323 
L 446.285386 148.503323 
z
" clip-path="url(#p720e582645)" style="fill: #ff0000"/>
   </g>
   <g id="patch_65">
    <path d="M 452.384857 354.958125 
L 457.264435 354.958125 
L 457.264435 149.561838 
L 452.384857 149.561838 
z
" clip-path="url(#p720e582645)" style="fill: #ff0000"/>
   </g>
   <g id="patch_66">
    <path d="M 458.484329 354.958125 
L 463.363906 354.958125 
L 463.363906 138.581177 
L 458.484329 138.581177 
z
" clip-path="url(#p720e582645)" style="fill: #ff0000"/>
   </g>
   <g id="patch_67">
    <path d="M 464.583801 354.958125 
L 469.463378 354.958125 
L 469.463378 159.907516 
L 464.583801 159.907516 
z
" clip-path="url(#p720e582645)" style="fill: #ff0000"/>
   </g>
   <g id="patch_68">
    <path d="M 470.683272 354.958125 
L 475.56285 354.958125 
L 475.56285 124.414041 
L 470.683272 124.414041 
z
" clip-path="url(#p720e582645)" style="fill: #ff0000"/>
   </g>
   <g id="patch_69">
    <path d="M 476.782744 354.958125 
L 481.662321 354.958125 
L 481.662321 137.743212 
L 476.782744 137.743212 
z
" clip-path="url(#p720e582645)" style="fill: #ff0000"/>
   </g>
   <g id="patch_70">
    <path d="M 482.882216 354.958125 
L 487.761793 354.958125 
L 487.761793 153.083429 
L 482.882216 153.083429 
z
" clip-path="url(#p720e582645)" style="fill: #ff0000"/>
   </g>
   <g id="patch_71">
    <path d="M 488.981687 354.958125 
L 493.861265 354.958125 
L 493.861265 161.614492 
L 488.981687 161.614492 
z
" clip-path="url(#p720e582645)" style="fill: #ff0000"/>
   </g>
   <g id="patch_72">
    <path d="M 495.081159 354.958125 
L 499.960736 354.958125 
L 499.960736 156.934579 
L 495.081159 156.934579 
z
" clip-path="url(#p720e582645)" style="fill: #ff0000"/>
   </g>
   <g id="patch_73">
    <path d="M 501.180631 354.958125 
L 506.060208 354.958125 
L 506.060208 184.38243 
L 501.180631 184.38243 
z
" clip-path="url(#p720e582645)" style="fill: #ff0000"/>
   </g>
   <g id="patch_74">
    <path d="M 507.280102 354.958125 
L 512.15968 354.958125 
L 512.15968 170.607925 
L 507.280102 170.607925 
z
" clip-path="url(#p720e582645)" style="fill: #ff0000"/>
   </g>
   <g id="patch_75">
    <path d="M 513.379574 354.958125 
L 518.259151 354.958125 
L 518.259151 158.293305 
L 513.379574 158.293305 
z
" clip-path="url(#p720e582645)" style="fill: #ff0000"/>
   </g>
   <g id="patch_76">
    <path d="M 519.479046 354.958125 
L 524.358623 354.958125 
L 524.358623 152.095762 
L 519.479046 152.095762 
z
" clip-path="url(#p720e582645)" style="fill: #ff0000"/>
   </g>
   <g id="patch_77">
    <path d="M 525.578517 354.958125 
L 530.458095 354.958125 
L 530.458095 138.907279 
L 525.578517 138.907279 
z
" clip-path="url(#p720e582645)" style="fill: #ff0000"/>
   </g>
   <g id="patch_78">
    <path d="M 531.677989 354.958125 
L 536.557566 354.958125 
L 536.557566 145.480346 
L 531.677989 145.480346 
z
" clip-path="url(#p720e582645)" style="fill: #ff0000"/>
   </g>
   <g id="patch_79">
    <path d="M 537.777461 354.958125 
L 542.657038 354.958125 
L 542.657038 147.726011 
L 537.777461 147.726011 
z
" clip-path="url(#p720e582645)" style="fill: #ff0000"/>
   </g>
   <g id="patch_80">
    <path d="M 543.876932 354.958125 
L 548.75651 354.958125 
L 548.75651 148.056145 
L 543.876932 148.056145 
z
" clip-path="url(#p720e582645)" style="fill: #ff0000"/>
   </g>
   <g id="patch_81">
    <path d="M 549.976404 354.958125 
L 554.855981 354.958125 
L 554.855981 136.507952 
L 549.976404 136.507952 
z
" clip-path="url(#p720e582645)" style="fill: #ff0000"/>
   </g>
   <g id="patch_82">
    <path d="M 556.075876 354.958125 
L 560.955453 354.958125 
L 560.955453 126.75659 
L 556.075876 126.75659 
z
" clip-path="url(#p720e582645)" style="fill: #ff0000"/>
   </g>
   <g id="patch_83">
    <path d="M 562.175347 354.958125 
L 567.054925 354.958125 
L 567.054925 137.852955 
L 562.175347 137.852955 
z
" clip-path="url(#p720e582645)" style="fill: #ff0000"/>
   </g>
   <g id="patch_84">
    <path d="M 568.274819 354.958125 
L 573.154396 354.958125 
L 573.154396 160.742875 
L 568.274819 160.742875 
z
" clip-path="url(#p720e582645)" style="fill: #ff0000"/>
   </g>
   <g id="patch_85">
    <path d="M 574.374291 354.958125 
L 579.253868 354.958125 
L 579.253868 147.770694 
L 574.374291 147.770694 
z
" clip-path="url(#p720e582645)" style="fill: #ff0000"/>
   </g>
   <g id="patch_86">
    <path d="M 580.473762 354.958125 
L 585.35334 354.958125 
L 585.35334 133.495918 
L 580.473762 133.495918 
z
" clip-path="url(#p720e582645)" style="fill: #ff0000"/>
   </g>
   <g id="patch_87">
    <path d="M 586.573234 354.958125 
L 591.452811 354.958125 
L 591.452811 155.082135 
L 586.573234 155.082135 
z
" clip-path="url(#p720e582645)" style="fill: #ff0000"/>
   </g>
   <g id="patch_88">
    <path d="M 592.672706 354.958125 
L 597.552283 354.958125 
L 597.552283 149.788422 
L 592.672706 149.788422 
z
" clip-path="url(#p720e582645)" style="fill: #ff0000"/>
   </g>
   <g id="patch_89">
    <path d="M 598.772177 354.958125 
L 603.651755 354.958125 
L 603.651755 165.817693 
L 598.772177 165.817693 
z
" clip-path="url(#p720e582645)" style="fill: #ff0000"/>
   </g>
   <g id="patch_90">
    <path d="M 604.871649 354.958125 
L 609.751226 354.958125 
L 609.751226 138.135511 
L 604.871649 138.135511 
z
" clip-path="url(#p720e582645)" style="fill: #ff0000"/>
   </g>
   <g id="patch_91">
    <path d="M 610.971121 354.958125 
L 615.850698 354.958125 
L 615.850698 152.48485 
L 610.971121 152.48485 
z
" clip-path="url(#p720e582645)" style="fill: #ff0000"/>
   </g>
   <g id="patch_92">
    <path d="M 617.070592 354.958125 
L 621.95017 354.958125 
L 621.95017 160.298419 
L 617.070592 160.298419 
z
" clip-path="url(#p720e582645)" style="fill: #ff0000"/>
   </g>
   <g id="patch_93">
    <path d="M 623.170064 354.958125 
L 628.049641 354.958125 
L 628.049641 160.761091 
L 623.170064 160.761091 
z
" clip-path="url(#p720e582645)" style="fill: #ff0000"/>
   </g>
   <g id="patch_94">
    <path d="M 629.269536 354.958125 
L 634.149113 354.958125 
L 634.149113 133.507813 
L 629.269536 133.507813 
z
" clip-path="url(#p720e582645)" style="fill: #ff0000"/>
   </g>
   <g id="patch_95">
    <path d="M 635.369007 354.958125 
L 640.248585 354.958125 
L 640.248585 149.214524 
L 635.369007 149.214524 
z
" clip-path="url(#p720e582645)" style="fill: #ff0000"/>
   </g>
   <g id="patch_96">
    <path d="M 641.468479 354.958125 
L 646.348056 354.958125 
L 646.348056 134.6672 
L 641.468479 134.6672 
z
" clip-path="url(#p720e582645)" style="fill: #ff0000"/>
   </g>
   <g id="patch_97">
    <path d="M 647.567951 354.958125 
L 652.447528 354.958125 
L 652.447528 139.630246 
L 647.567951 139.630246 
z
" clip-path="url(#p720e582645)" style="fill: #ff0000"/>
   </g>
   <g id="patch_98">
    <path d="M 653.667422 354.958125 
L 658.547 354.958125 
L 658.547 147.189309 
L 653.667422 147.189309 
z
" clip-path="url(#p720e582645)" style="fill: #ff0000"/>
   </g>
   <g id="patch_99">
    <path d="M 659.766894 354.958125 
L 664.646471 354.958125 
L 664.646471 153.470127 
L 659.766894 153.470127 
z
" clip-path="url(#p720e582645)" style="fill: #ff0000"/>
   </g>
   <g id="patch_100">
    <path d="M 665.866366 354.958125 
L 670.745943 354.958125 
L 670.745943 138.997798 
L 665.866366 138.997798 
z
" clip-path="url(#p720e582645)" style="fill: #ff0000"/>
   </g>
   <g id="patch_101">
    <path d="M 671.965837 354.958125 
L 676.845415 354.958125 
L 676.845415 150.636366 
L 671.965837 150.636366 
z
" clip-path="url(#p720e582645)" style="fill: #ff0000"/>
   </g>
   <g id="patch_102">
    <path d="M 678.065309 354.958125 
L 682.944886 354.958125 
L 682.944886 141.992133 
L 678.065309 141.992133 
z
" clip-path="url(#p720e582645)" style="fill: #ff0000"/>
   </g>
   <g id="patch_103">
    <path d="M 74.217614 146.655889 
L 79.097191 146.655889 
L 79.097191 145.27012 
L 74.217614 145.27012 
z
" clip-path="url(#p720e582645)" style="fill: #008000"/>
   </g>
   <g id="patch_104">
    <path d="M 80.317085 129.273076 
L 85.196663 129.273076 
L 85.196663 128.310738 
L 80.317085 128.310738 
z
" clip-path="url(#p720e582645)" style="fill: #008000"/>
   </g>
   <g id="patch_105">
    <path d="M 86.416557 139.089655 
L 91.296134 139.089655 
L 91.296134 131.170924 
L 86.416557 131.170924 
z
" clip-path="url(#p720e582645)" style="fill: #008000"/>
   </g>
   <g id="patch_106">
    <path d="M 92.516029 131.05293 
L 97.395606 131.05293 
L 97.395606 128.961834 
L 92.516029 128.961834 
z
" clip-path="url(#p720e582645)" style="fill: #008000"/>
   </g>
   <g id="patch_107">
    <path d="M 98.6155 146.999416 
L 103.495078 146.999416 
L 103.495078 146.087118 
L 98.6155 146.087118 
z
" clip-path="url(#p720e582645)" style="fill: #008000"/>
   </g>
   <g id="patch_108">
    <path d="M 104.714972 160.052438 
L 109.594549 160.052438 
L 109.594549 159.15886 
L 104.714972 159.15886 
z
" clip-path="url(#p720e582645)" style="fill: #008000"/>
   </g>
   <g id="patch_109">
    <path d="M 110.814444 160.341936 
L 115.694021 160.341936 
L 115.694021 157.925443 
L 110.814444 157.925443 
z
" clip-path="url(#p720e582645)" style="fill: #008000"/>
   </g>
   <g id="patch_110">
    <path d="M 116.913915 161.04166 
L 121.793493 161.04166 
L 121.793493 160.657569 
L 116.913915 160.657569 
z
" clip-path="url(#p720e582645)" style="fill: #008000"/>
   </g>
   <g id="patch_111">
    <path d="M 123.013387 167.072797 
L 127.892964 167.072797 
L 127.892964 160.996603 
L 123.013387 160.996603 
z
" clip-path="url(#p720e582645)" style="fill: #008000"/>
   </g>
   <g id="patch_112">
    <path d="M 129.112859 144.110719 
L 133.992436 144.110719 
L 133.992436 140.120349 
L 129.112859 140.120349 
z
" clip-path="url(#p720e582645)" style="fill: #008000"/>
   </g>
   <g id="patch_113">
    <path d="M 135.21233 131.223311 
L 140.091908 131.223311 
L 140.091908 130.533896 
L 135.21233 130.533896 
z
" clip-path="url(#p720e582645)" style="fill: #008000"/>
   </g>
   <g id="patch_114">
    <path d="M 141.311802 139.150034 
L 146.191379 139.150034 
L 146.191379 138.366387 
L 141.311802 138.366387 
z
" clip-path="url(#p720e582645)" style="fill: #008000"/>
   </g>
   <g id="patch_115">
    <path d="M 147.411274 152.716445 
L 152.290851 152.716445 
L 152.290851 151.091463 
L 147.411274 151.091463 
z
" clip-path="url(#p720e582645)" style="fill: #008000"/>
   </g>
   <g id="patch_116">
    <path d="M 153.510745 162.885911 
L 158.390323 162.885911 
L 158.390323 158.260214 
L 153.510745 158.260214 
z
" clip-path="url(#p720e582645)" style="fill: #008000"/>
   </g>
   <g id="patch_117">
    <path d="M 159.610217 162.859617 
L 164.489794 162.859617 
L 164.489794 161.646604 
L 159.610217 161.646604 
z
" clip-path="url(#p720e582645)" style="fill: #008000"/>
   </g>
   <g id="patch_118">
    <path d="M 165.709689 112.33142 
L 170.589266 112.33142 
L 170.589266 109.685824 
L 165.709689 109.685824 
z
" clip-path="url(#p720e582645)" style="fill: #008000"/>
   </g>
   <g id="patch_119">
    <path d="M 171.80916 139.921644 
L 176.688738 139.921644 
L 176.688738 136.943408 
L 171.80916 136.943408 
z
" clip-path="url(#p720e582645)" style="fill: #008000"/>
   </g>
   <g id="patch_120">
    <path d="M 177.908632 130.878186 
L 182.788209 130.878186 
L 182.788209 129.675786 
L 177.908632 129.675786 
z
" clip-path="url(#p720e582645)" style="fill: #008000"/>
   </g>
   <g id="patch_121">
    <path d="M 184.008104 150.051999 
L 188.887681 150.051999 
L 188.887681 147.836056 
L 184.008104 147.836056 
z
" clip-path="url(#p720e582645)" style="fill: #008000"/>
   </g>
   <g id="patch_122">
    <path d="M 190.107575 124.682918 
L 194.987153 124.682918 
L 194.987153 121.436194 
L 190.107575 121.436194 
z
" clip-path="url(#p720e582645)" style="fill: #008000"/>
   </g>
   <g id="patch_123">
    <path d="M 196.207047 138.28939 
L 201.086624 138.28939 
L 201.086624 134.849158 
L 196.207047 134.849158 
z
" clip-path="url(#p720e582645)" style="fill: #008000"/>
   </g>
   <g id="patch_124">
    <path d="M 202.306519 165.087239 
L 207.186096 165.087239 
L 207.186096 164.918241 
L 202.306519 164.918241 
z
" clip-path="url(#p720e582645)" style="fill: #008000"/>
   </g>
   <g id="patch_125">
    <path d="M 208.40599 134.740769 
L 213.285568 134.740769 
L 213.285568 126.900143 
L 208.40599 126.900143 
z
" clip-path="url(#p720e582645)" style="fill: #008000"/>
   </g>
   <g id="patch_126">
    <path d="M 214.505462 130.768199 
L 219.385039 130.768199 
L 219.385039 122.781283 
L 214.505462 122.781283 
z
" clip-path="url(#p720e582645)" style="fill: #008000"/>
   </g>
   <g id="patch_127">
    <path d="M 220.604934 134.843585 
L 225.484511 134.843585 
L 225.484511 128.306807 
L 220.604934 128.306807 
z
" clip-path="url(#p720e582645)" style="fill: #008000"/>
   </g>
   <g id="patch_128">
    <path d="M 226.704405 151.383639 
L 231.583983 151.383639 
L 231.583983 150.798092 
L 226.704405 150.798092 
z
" clip-path="url(#p720e582645)" style="fill: #008000"/>
   </g>
   <g id="patch_129">
    <path d="M 232.803877 130.173594 
L 237.683454 130.173594 
L 237.683454 128.212689 
L 232.803877 128.212689 
z
" clip-path="url(#p720e582645)" style="fill: #008000"/>
   </g>
   <g id="patch_130">
    <path d="M 238.903349 155.418202 
L 243.782926 155.418202 
L 243.782926 149.985803 
L 238.903349 149.985803 
z
" clip-path="url(#p720e582645)" style="fill: #008000"/>
   </g>
   <g id="patch_131">
    <path d="M 245.00282 148.431409 
L 249.882398 148.431409 
L 249.882398 146.438493 
L 245.00282 146.438493 
z
" clip-path="url(#p720e582645)" style="fill: #008000"/>
   </g>
   <g id="patch_132">
    <path d="M 251.102292 156.702898 
L 255.981869 156.702898 
L 255.981869 152.655461 
L 251.102292 152.655461 
z
" clip-path="url(#p720e582645)" style="fill: #008000"/>
   </g>
   <g id="patch_133">
    <path d="M 257.201764 162.95267 
L 262.081341 162.95267 
L 262.081341 161.558361 
L 257.201764 161.558361 
z
" clip-path="url(#p720e582645)" style="fill: #008000"/>
   </g>
   <g id="patch_134">
    <path d="M 263.301235 164.518914 
L 268.180813 164.518914 
L 268.180813 163.433558 
L 263.301235 163.433558 
z
" clip-path="url(#p720e582645)" style="fill: #008000"/>
   </g>
   <g id="patch_135">
    <path d="M 269.400707 155.116306 
L 274.280284 155.116306 
L 274.280284 153.362357 
L 269.400707 153.362357 
z
" clip-path="url(#p720e582645)" style="fill: #008000"/>
   </g>
   <g id="patch_136">
    <path d="M 275.500179 127.108338 
L 280.379756 127.108338 
L 280.379756 126.794678 
L 275.500179 126.794678 
z
" clip-path="url(#p720e582645)" style="fill: #008000"/>
   </g>
   <g id="patch_137">
    <path d="M 281.59965 161.708049 
L 286.479228 161.708049 
L 286.479228 160.935719 
L 281.59965 160.935719 
z
" clip-path="url(#p720e582645)" style="fill: #008000"/>
   </g>
   <g id="patch_138">
    <path d="M 287.699122 143.757991 
L 292.578699 143.757991 
L 292.578699 142.095813 
L 287.699122 142.095813 
z
" clip-path="url(#p720e582645)" style="fill: #008000"/>
   </g>
   <g id="patch_139">
    <path d="M 293.798594 137.602711 
L 298.678171 137.602711 
L 298.678171 136.290022 
L 293.798594 136.290022 
z
" clip-path="url(#p720e582645)" style="fill: #008000"/>
   </g>
   <g id="patch_140">
    <path d="M 299.898065 150.180692 
L 304.777643 150.180692 
L 304.777643 147.536968 
L 299.898065 147.536968 
z
" clip-path="url(#p720e582645)" style="fill: #008000"/>
   </g>
   <g id="patch_141">
    <path d="M 305.997537 147.745897 
L 310.877114 147.745897 
L 310.877114 142.581453 
L 305.997537 142.581453 
z
" clip-path="url(#p720e582645)" style="fill: #008000"/>
   </g>
   <g id="patch_142">
    <path d="M 312.097009 153.322916 
L 316.976586 153.322916 
L 316.976586 152.019759 
L 312.097009 152.019759 
z
" clip-path="url(#p720e582645)" style="fill: #008000"/>
   </g>
   <g id="patch_143">
    <path d="M 318.19648 152.295721 
L 323.076058 152.295721 
L 323.076058 143.239792 
L 318.19648 143.239792 
z
" clip-path="url(#p720e582645)" style="fill: #008000"/>
   </g>
   <g id="patch_144">
    <path d="M 324.295952 169.179574 
L 329.175529 169.179574 
L 329.175529 163.376692 
L 324.295952 163.376692 
z
" clip-path="url(#p720e582645)" style="fill: #008000"/>
   </g>
   <g id="patch_145">
    <path d="M 330.395424 162.285316 
L 335.275001 162.285316 
L 335.275001 161.666433 
L 330.395424 161.666433 
z
" clip-path="url(#p720e582645)" style="fill: #008000"/>
   </g>
   <g id="patch_146">
    <path d="M 336.494895 179.107639 
L 341.374473 179.107639 
L 341.374473 177.383023 
L 336.494895 177.383023 
z
" clip-path="url(#p720e582645)" style="fill: #008000"/>
   </g>
   <g id="patch_147">
    <path d="M 342.594367 135.300483 
L 347.473944 135.300483 
L 347.473944 133.677157 
L 342.594367 133.677157 
z
" clip-path="url(#p720e582645)" style="fill: #008000"/>
   </g>
   <g id="patch_148">
    <path d="M 348.693839 146.601702 
L 353.573416 146.601702 
L 353.573416 143.479394 
L 348.693839 143.479394 
z
" clip-path="url(#p720e582645)" style="fill: #008000"/>
   </g>
   <g id="patch_149">
    <path d="M 354.79331 135.260077 
L 359.672888 135.260077 
L 359.672888 132.882982 
L 354.79331 132.882982 
z
" clip-path="url(#p720e582645)" style="fill: #008000"/>
   </g>
   <g id="patch_150">
    <path d="M 360.892782 135.10483 
L 365.772359 135.10483 
L 365.772359 135.10483 
L 360.892782 135.10483 
z
" clip-path="url(#p720e582645)" style="fill: #008000"/>
   </g>
   <g id="patch_151">
    <path d="M 366.992254 150.91489 
L 371.871831 150.91489 
L 371.871831 150.54481 
L 366.992254 150.54481 
z
" clip-path="url(#p720e582645)" style="fill: #008000"/>
   </g>
   <g id="patch_152">
    <path d="M 373.091725 164.634114 
L 377.971303 164.634114 
L 377.971303 163.9735 
L 373.091725 163.9735 
z
" clip-path="url(#p720e582645)" style="fill: #008000"/>
   </g>
   <g id="patch_153">
    <path d="M 379.191197 145.071054 
L 384.070775 145.071054 
L 384.070775 145.067166 
L 379.191197 145.067166 
z
" clip-path="url(#p720e582645)" style="fill: #008000"/>
   </g>
   <g id="patch_154">
    <path d="M 385.290669 149.733644 
L 390.170246 149.733644 
L 390.170246 145.67728 
L 385.290669 145.67728 
z
" clip-path="url(#p720e582645)" style="fill: #008000"/>
   </g>
   <g id="patch_155">
    <path d="M 391.390141 151.599423 
L 396.269718 151.599423 
L 396.269718 149.876867 
L 391.390141 149.876867 
z
" clip-path="url(#p720e582645)" style="fill: #008000"/>
   </g>
   <g id="patch_156">
    <path d="M 397.489612 138.967385 
L 402.36919 138.967385 
L 402.36919 136.439739 
L 397.489612 136.439739 
z
" clip-path="url(#p720e582645)" style="fill: #008000"/>
   </g>
   <g id="patch_157">
    <path d="M 403.589084 131.845175 
L 408.468661 131.845175 
L 408.468661 128.343513 
L 403.589084 128.343513 
z
" clip-path="url(#p720e582645)" style="fill: #008000"/>
   </g>
   <g id="patch_158">
    <path d="M 409.688556 147.064432 
L 414.568133 147.064432 
L 414.568133 141.130797 
L 409.688556 141.130797 
z
" clip-path="url(#p720e582645)" style="fill: #008000"/>
   </g>
   <g id="patch_159">
    <path d="M 415.788027 143.077979 
L 420.667605 143.077979 
L 420.667605 141.279002 
L 415.788027 141.279002 
z
" clip-path="url(#p720e582645)" style="fill: #008000"/>
   </g>
   <g id="patch_160">
    <path d="M 421.887499 145.577704 
L 426.767076 145.577704 
L 426.767076 141.734172 
L 421.887499 141.734172 
z
" clip-path="url(#p720e582645)" style="fill: #008000"/>
   </g>
   <g id="patch_161">
    <path d="M 427.986971 143.26312 
L 432.866548 143.26312 
L 432.866548 140.319343 
L 427.986971 140.319343 
z
" clip-path="url(#p720e582645)" style="fill: #008000"/>
   </g>
   <g id="patch_162">
    <path d="M 434.086442 150.31238 
L 438.96602 150.31238 
L 438.96602 145.387898 
L 434.086442 145.387898 
z
" clip-path="url(#p720e582645)" style="fill: #008000"/>
   </g>
   <g id="patch_163">
    <path d="M 440.185914 142.928148 
L 445.065491 142.928148 
L 445.065491 140.256069 
L 440.185914 140.256069 
z
" clip-path="url(#p720e582645)" style="fill: #008000"/>
   </g>
   <g id="patch_164">
    <path d="M 446.285386 148.503323 
L 451.164963 148.503323 
L 451.164963 146.491557 
L 446.285386 146.491557 
z
" clip-path="url(#p720e582645)" style="fill: #008000"/>
   </g>
   <g id="patch_165">
    <path d="M 452.384857 149.561838 
L 457.264435 149.561838 
L 457.264435 149.327579 
L 452.384857 149.327579 
z
" clip-path="url(#p720e582645)" style="fill: #008000"/>
   </g>
   <g id="patch_166">
    <path d="M 458.484329 138.581177 
L 463.363906 138.581177 
L 463.363906 133.861966 
L 458.484329 133.861966 
z
" clip-path="url(#p720e582645)" style="fill: #008000"/>
   </g>
   <g id="patch_167">
    <path d="M 464.583801 159.907516 
L 469.463378 159.907516 
L 469.463378 159.907516 
L 464.583801 159.907516 
z
" clip-path="url(#p720e582645)" style="fill: #008000"/>
   </g>
   <g id="patch_168">
    <path d="M 470.683272 124.414041 
L 475.56285 124.414041 
L 475.56285 121.665182 
L 470.683272 121.665182 
z
" clip-path="url(#p720e582645)" style="fill: #008000"/>
   </g>
   <g id="patch_169">
    <path d="M 476.782744 137.743212 
L 481.662321 137.743212 
L 481.662321 134.755357 
L 476.782744 134.755357 
z
" clip-path="url(#p720e582645)" style="fill: #008000"/>
   </g>
   <g id="patch_170">
    <path d="M 482.882216 153.083429 
L 487.761793 153.083429 
L 487.761793 152.970159 
L 482.882216 152.970159 
z
" clip-path="url(#p720e582645)" style="fill: #008000"/>
   </g>
   <g id="patch_171">
    <path d="M 488.981687 161.614492 
L 493.861265 161.614492 
L 493.861265 159.157478 
L 488.981687 159.157478 
z
" clip-path="url(#p720e582645)" style="fill: #008000"/>
   </g>
   <g id="patch_172">
    <path d="M 495.081159 156.934579 
L 499.960736 156.934579 
L 499.960736 150.334585 
L 495.081159 150.334585 
z
" clip-path="url(#p720e582645)" style="fill: #008000"/>
   </g>
   <g id="patch_173">
    <path d="M 501.180631 184.38243 
L 506.060208 184.38243 
L 506.060208 178.702754 
L 501.180631 178.702754 
z
" clip-path="url(#p720e582645)" style="fill: #008000"/>
   </g>
   <g id="patch_174">
    <path d="M 507.280102 170.607925 
L 512.15968 170.607925 
L 512.15968 165.311648 
L 507.280102 165.311648 
z
" clip-path="url(#p720e582645)" style="fill: #008000"/>
   </g>
   <g id="patch_175">
    <path d="M 513.379574 158.293305 
L 518.259151 158.293305 
L 518.259151 156.366154 
L 513.379574 156.366154 
z
" clip-path="url(#p720e582645)" style="fill: #008000"/>
   </g>
   <g id="patch_176">
    <path d="M 519.479046 152.095762 
L 524.358623 152.095762 
L 524.358623 150.513087 
L 519.479046 150.513087 
z
" clip-path="url(#p720e582645)" style="fill: #008000"/>
   </g>
   <g id="patch_177">
    <path d="M 525.578517 138.907279 
L 530.458095 138.907279 
L 530.458095 138.72967 
L 525.578517 138.72967 
z
" clip-path="url(#p720e582645)" style="fill: #008000"/>
   </g>
   <g id="patch_178">
    <path d="M 531.677989 145.480346 
L 536.557566 145.480346 
L 536.557566 143.496746 
L 531.677989 143.496746 
z
" clip-path="url(#p720e582645)" style="fill: #008000"/>
   </g>
   <g id="patch_179">
    <path d="M 537.777461 147.726011 
L 542.657038 147.726011 
L 542.657038 140.670991 
L 537.777461 140.670991 
z
" clip-path="url(#p720e582645)" style="fill: #008000"/>
   </g>
   <g id="patch_180">
    <path d="M 543.876932 148.056145 
L 548.75651 148.056145 
L 548.75651 144.390453 
L 543.876932 144.390453 
z
" clip-path="url(#p720e582645)" style="fill: #008000"/>
   </g>
   <g id="patch_181">
    <path d="M 549.976404 136.507952 
L 554.855981 136.507952 
L 554.855981 134.627859 
L 549.976404 134.627859 
z
" clip-path="url(#p720e582645)" style="fill: #008000"/>
   </g>
   <g id="patch_182">
    <path d="M 556.075876 126.75659 
L 560.955453 126.75659 
L 560.955453 120.988699 
L 556.075876 120.988699 
z
" clip-path="url(#p720e582645)" style="fill: #008000"/>
   </g>
   <g id="patch_183">
    <path d="M 562.175347 137.852955 
L 567.054925 137.852955 
L 567.054925 135.482225 
L 562.175347 135.482225 
z
" clip-path="url(#p720e582645)" style="fill: #008000"/>
   </g>
   <g id="patch_184">
    <path d="M 568.274819 160.742875 
L 573.154396 160.742875 
L 573.154396 156.437189 
L 568.274819 156.437189 
z
" clip-path="url(#p720e582645)" style="fill: #008000"/>
   </g>
   <g id="patch_185">
    <path d="M 574.374291 147.770694 
L 579.253868 147.770694 
L 579.253868 147.410075 
L 574.374291 147.410075 
z
" clip-path="url(#p720e582645)" style="fill: #008000"/>
   </g>
   <g id="patch_186">
    <path d="M 580.473762 133.495918 
L 585.35334 133.495918 
L 585.35334 132.656687 
L 580.473762 132.656687 
z
" clip-path="url(#p720e582645)" style="fill: #008000"/>
   </g>
   <g id="patch_187">
    <path d="M 586.573234 155.082135 
L 591.452811 155.082135 
L 591.452811 153.868892 
L 586.573234 153.868892 
z
" clip-path="url(#p720e582645)" style="fill: #008000"/>
   </g>
   <g id="patch_188">
    <path d="M 592.672706 149.788422 
L 597.552283 149.788422 
L 597.552283 147.957347 
L 592.672706 147.957347 
z
" clip-path="url(#p720e582645)" style="fill: #008000"/>
   </g>
   <g id="patch_189">
    <path d="M 598.772177 165.817693 
L 603.651755 165.817693 
L 603.651755 164.204836 
L 598.772177 164.204836 
z
" clip-path="url(#p720e582645)" style="fill: #008000"/>
   </g>
   <g id="patch_190">
    <path d="M 604.871649 138.135511 
L 609.751226 138.135511 
L 609.751226 136.521358 
L 604.871649 136.521358 
z
" clip-path="url(#p720e582645)" style="fill: #008000"/>
   </g>
   <g id="patch_191">
    <path d="M 610.971121 152.48485 
L 615.850698 152.48485 
L 615.850698 151.354566 
L 610.971121 151.354566 
z
" clip-path="url(#p720e582645)" style="fill: #008000"/>
   </g>
   <g id="patch_192">
    <path d="M 617.070592 160.298419 
L 621.95017 160.298419 
L 621.95017 154.194202 
L 617.070592 154.194202 
z
" clip-path="url(#p720e582645)" style="fill: #008000"/>
   </g>
   <g id="patch_193">
    <path d="M 623.170064 160.761091 
L 628.049641 160.761091 
L 628.049641 156.267514 
L 623.170064 156.267514 
z
" clip-path="url(#p720e582645)" style="fill: #008000"/>
   </g>
   <g id="patch_194">
    <path d="M 629.269536 133.507813 
L 634.149113 133.507813 
L 634.149113 132.145515 
L 629.269536 132.145515 
z
" clip-path="url(#p720e582645)" style="fill: #008000"/>
   </g>
   <g id="patch_195">
    <path d="M 635.369007 149.214524 
L 640.248585 149.214524 
L 640.248585 145.050419 
L 635.369007 145.050419 
z
" clip-path="url(#p720e582645)" style="fill: #008000"/>
   </g>
   <g id="patch_196">
    <path d="M 641.468479 134.6672 
L 646.348056 134.6672 
L 646.348056 130.972578 
L 641.468479 130.972578 
z
" clip-path="url(#p720e582645)" style="fill: #008000"/>
   </g>
   <g id="patch_197">
    <path d="M 647.567951 139.630246 
L 652.447528 139.630246 
L 652.447528 138.774065 
L 647.567951 138.774065 
z
" clip-path="url(#p720e582645)" style="fill: #008000"/>
   </g>
   <g id="patch_198">
    <path d="M 653.667422 147.189309 
L 658.547 147.189309 
L 658.547 143.926183 
L 653.667422 143.926183 
z
" clip-path="url(#p720e582645)" style="fill: #008000"/>
   </g>
   <g id="patch_199">
    <path d="M 659.766894 153.470127 
L 664.646471 153.470127 
L 664.646471 152.351866 
L 659.766894 152.351866 
z
" clip-path="url(#p720e582645)" style="fill: #008000"/>
   </g>
   <g id="patch_200">
    <path d="M 665.866366 138.997798 
L 670.745943 138.997798 
L 670.745943 135.959196 
L 665.866366 135.959196 
z
" clip-path="url(#p720e582645)" style="fill: #008000"/>
   </g>
   <g id="patch_201">
    <path d="M 671.965837 150.636366 
L 676.845415 150.636366 
L 676.845415 150.636366 
L 671.965837 150.636366 
z
" clip-path="url(#p720e582645)" style="fill: #008000"/>
   </g>
   <g id="patch_202">
    <path d="M 678.065309 141.992133 
L 682.944886 141.992133 
L 682.944886 135.620163 
L 678.065309 135.620163 
z
" clip-path="url(#p720e582645)" style="fill: #008000"/>
   </g>
   <g id="patch_203">
    <path d="M 74.217614 145.27012 
L 79.097191 145.27012 
L 79.097191 38.158183 
L 74.217614 38.158183 
z
" clip-path="url(#p720e582645)" style="fill: #0000ff"/>
   </g>
   <g id="patch_204">
    <path d="M 80.317085 128.310738 
L 85.196663 128.310738 
L 85.196663 38.158168 
L 80.317085 38.158168 
z
" clip-path="url(#p720e582645)" style="fill: #0000ff"/>
   </g>
   <g id="patch_205">
    <path d="M 86.416557 131.170924 
L 91.296134 131.170924 
L 91.296134 38.158168 
L 86.416557 38.158168 
z
" clip-path="url(#p720e582645)" style="fill: #0000ff"/>
   </g>
   <g id="patch_206">
    <path d="M 92.516029 128.961834 
L 97.395606 128.961834 
L 97.395606 38.158168 
L 92.516029 38.158168 
z
" clip-path="url(#p720e582645)" style="fill: #0000ff"/>
   </g>
   <g id="patch_207">
    <path d="M 98.6155 146.087118 
L 103.495078 146.087118 
L 103.495078 38.158168 
L 98.6155 38.158168 
z
" clip-path="url(#p720e582645)" style="fill: #0000ff"/>
   </g>
   <g id="patch_208">
    <path d="M 104.714972 159.15886 
L 109.594549 159.15886 
L 109.594549 38.158154 
L 104.714972 38.158154 
z
" clip-path="url(#p720e582645)" style="fill: #0000ff"/>
   </g>
   <g id="patch_209">
    <path d="M 110.814444 157.925443 
L 115.694021 157.925443 
L 115.694021 38.158168 
L 110.814444 38.158168 
z
" clip-path="url(#p720e582645)" style="fill: #0000ff"/>
   </g>
   <g id="patch_210">
    <path d="M 116.913915 160.657569 
L 121.793493 160.657569 
L 121.793493 38.158183 
L 116.913915 38.158183 
z
" clip-path="url(#p720e582645)" style="fill: #0000ff"/>
   </g>
   <g id="patch_211">
    <path d="M 123.013387 160.996603 
L 127.892964 160.996603 
L 127.892964 38.158168 
L 123.013387 38.158168 
z
" clip-path="url(#p720e582645)" style="fill: #0000ff"/>
   </g>
   <g id="patch_212">
    <path d="M 129.112859 140.120349 
L 133.992436 140.120349 
L 133.992436 38.158183 
L 129.112859 38.158183 
z
" clip-path="url(#p720e582645)" style="fill: #0000ff"/>
   </g>
   <g id="patch_213">
    <path d="M 135.21233 130.533896 
L 140.091908 130.533896 
L 140.091908 38.158183 
L 135.21233 38.158183 
z
" clip-path="url(#p720e582645)" style="fill: #0000ff"/>
   </g>
   <g id="patch_214">
    <path d="M 141.311802 138.366387 
L 146.191379 138.366387 
L 146.191379 38.158154 
L 141.311802 38.158154 
z
" clip-path="url(#p720e582645)" style="fill: #0000ff"/>
   </g>
   <g id="patch_215">
    <path d="M 147.411274 151.091463 
L 152.290851 151.091463 
L 152.290851 38.158168 
L 147.411274 38.158168 
z
" clip-path="url(#p720e582645)" style="fill: #0000ff"/>
   </g>
   <g id="patch_216">
    <path d="M 153.510745 158.260214 
L 158.390323 158.260214 
L 158.390323 38.158183 
L 153.510745 38.158183 
z
" clip-path="url(#p720e582645)" style="fill: #0000ff"/>
   </g>
   <g id="patch_217">
    <path d="M 159.610217 161.646604 
L 164.489794 161.646604 
L 164.489794 38.158168 
L 159.610217 38.158168 
z
" clip-path="url(#p720e582645)" style="fill: #0000ff"/>
   </g>
   <g id="patch_218">
    <path d="M 165.709689 109.685824 
L 170.589266 109.685824 
L 170.589266 38.158168 
L 165.709689 38.158168 
z
" clip-path="url(#p720e582645)" style="fill: #0000ff"/>
   </g>
   <g id="patch_219">
    <path d="M 171.80916 136.943408 
L 176.688738 136.943408 
L 176.688738 38.158168 
L 171.80916 38.158168 
z
" clip-path="url(#p720e582645)" style="fill: #0000ff"/>
   </g>
   <g id="patch_220">
    <path d="M 177.908632 129.675786 
L 182.788209 129.675786 
L 182.788209 38.158168 
L 177.908632 38.158168 
z
" clip-path="url(#p720e582645)" style="fill: #0000ff"/>
   </g>
   <g id="patch_221">
    <path d="M 184.008104 147.836056 
L 188.887681 147.836056 
L 188.887681 38.158168 
L 184.008104 38.158168 
z
" clip-path="url(#p720e582645)" style="fill: #0000ff"/>
   </g>
   <g id="patch_222">
    <path d="M 190.107575 121.436194 
L 194.987153 121.436194 
L 194.987153 38.158183 
L 190.107575 38.158183 
z
" clip-path="url(#p720e582645)" style="fill: #0000ff"/>
   </g>
   <g id="patch_223">
    <path d="M 196.207047 134.849158 
L 201.086624 134.849158 
L 201.086624 38.158168 
L 196.207047 38.158168 
z
" clip-path="url(#p720e582645)" style="fill: #0000ff"/>
   </g>
   <g id="patch_224">
    <path d="M 202.306519 164.918241 
L 207.186096 164.918241 
L 207.186096 38.158183 
L 202.306519 38.158183 
z
" clip-path="url(#p720e582645)" style="fill: #0000ff"/>
   </g>
   <g id="patch_225">
    <path d="M 208.40599 126.900143 
L 213.285568 126.900143 
L 213.285568 38.158197 
L 208.40599 38.158197 
z
" clip-path="url(#p720e582645)" style="fill: #0000ff"/>
   </g>
   <g id="patch_226">
    <path d="M 214.505462 122.781283 
L 219.385039 122.781283 
L 219.385039 38.158168 
L 214.505462 38.158168 
z
" clip-path="url(#p720e582645)" style="fill: #0000ff"/>
   </g>
   <g id="patch_227">
    <path d="M 220.604934 128.306807 
L 225.484511 128.306807 
L 225.484511 38.158168 
L 220.604934 38.158168 
z
" clip-path="url(#p720e582645)" style="fill: #0000ff"/>
   </g>
   <g id="patch_228">
    <path d="M 226.704405 150.798092 
L 231.583983 150.798092 
L 231.583983 38.158183 
L 226.704405 38.158183 
z
" clip-path="url(#p720e582645)" style="fill: #0000ff"/>
   </g>
   <g id="patch_229">
    <path d="M 232.803877 128.212689 
L 237.683454 128.212689 
L 237.683454 38.158183 
L 232.803877 38.158183 
z
" clip-path="url(#p720e582645)" style="fill: #0000ff"/>
   </g>
   <g id="patch_230">
    <path d="M 238.903349 149.985803 
L 243.782926 149.985803 
L 243.782926 38.158154 
L 238.903349 38.158154 
z
" clip-path="url(#p720e582645)" style="fill: #0000ff"/>
   </g>
   <g id="patch_231">
    <path d="M 245.00282 146.438493 
L 249.882398 146.438493 
L 249.882398 38.158154 
L 245.00282 38.158154 
z
" clip-path="url(#p720e582645)" style="fill: #0000ff"/>
   </g>
   <g id="patch_232">
    <path d="M 251.102292 152.655461 
L 255.981869 152.655461 
L 255.981869 38.158154 
L 251.102292 38.158154 
z
" clip-path="url(#p720e582645)" style="fill: #0000ff"/>
   </g>
   <g id="patch_233">
    <path d="M 257.201764 161.558361 
L 262.081341 161.558361 
L 262.081341 38.158183 
L 257.201764 38.158183 
z
" clip-path="url(#p720e582645)" style="fill: #0000ff"/>
   </g>
   <g id="patch_234">
    <path d="M 263.301235 163.433558 
L 268.180813 163.433558 
L 268.180813 38.158168 
L 263.301235 38.158168 
z
" clip-path="url(#p720e582645)" style="fill: #0000ff"/>
   </g>
   <g id="patch_235">
    <path d="M 269.400707 153.362357 
L 274.280284 153.362357 
L 274.280284 38.158168 
L 269.400707 38.158168 
z
" clip-path="url(#p720e582645)" style="fill: #0000ff"/>
   </g>
   <g id="patch_236">
    <path d="M 275.500179 126.794678 
L 280.379756 126.794678 
L 280.379756 38.158168 
L 275.500179 38.158168 
z
" clip-path="url(#p720e582645)" style="fill: #0000ff"/>
   </g>
   <g id="patch_237">
    <path d="M 281.59965 160.935719 
L 286.479228 160.935719 
L 286.479228 38.158168 
L 281.59965 38.158168 
z
" clip-path="url(#p720e582645)" style="fill: #0000ff"/>
   </g>
   <g id="patch_238">
    <path d="M 287.699122 142.095813 
L 292.578699 142.095813 
L 292.578699 38.158168 
L 287.699122 38.158168 
z
" clip-path="url(#p720e582645)" style="fill: #0000ff"/>
   </g>
   <g id="patch_239">
    <path d="M 293.798594 136.290022 
L 298.678171 136.290022 
L 298.678171 38.158168 
L 293.798594 38.158168 
z
" clip-path="url(#p720e582645)" style="fill: #0000ff"/>
   </g>
   <g id="patch_240">
    <path d="M 299.898065 147.536968 
L 304.777643 147.536968 
L 304.777643 38.158168 
L 299.898065 38.158168 
z
" clip-path="url(#p720e582645)" style="fill: #0000ff"/>
   </g>
   <g id="patch_241">
    <path d="M 305.997537 142.581453 
L 310.877114 142.581453 
L 310.877114 38.158168 
L 305.997537 38.158168 
z
" clip-path="url(#p720e582645)" style="fill: #0000ff"/>
   </g>
   <g id="patch_242">
    <path d="M 312.097009 152.019759 
L 316.976586 152.019759 
L 316.976586 38.158183 
L 312.097009 38.158183 
z
" clip-path="url(#p720e582645)" style="fill: #0000ff"/>
   </g>
   <g id="patch_243">
    <path d="M 318.19648 143.239792 
L 323.076058 143.239792 
L 323.076058 38.158154 
L 318.19648 38.158154 
z
" clip-path="url(#p720e582645)" style="fill: #0000ff"/>
   </g>
   <g id="patch_244">
    <path d="M 324.295952 163.376692 
L 329.175529 163.376692 
L 329.175529 38.158139 
L 324.295952 38.158139 
z
" clip-path="url(#p720e582645)" style="fill: #0000ff"/>
   </g>
   <g id="patch_245">
    <path d="M 330.395424 161.666433 
L 335.275001 161.666433 
L 335.275001 38.158168 
L 330.395424 38.158168 
z
" clip-path="url(#p720e582645)" style="fill: #0000ff"/>
   </g>
   <g id="patch_246">
    <path d="M 336.494895 177.383023 
L 341.374473 177.383023 
L 341.374473 38.158154 
L 336.494895 38.158154 
z
" clip-path="url(#p720e582645)" style="fill: #0000ff"/>
   </g>
   <g id="patch_247">
    <path d="M 342.594367 133.677157 
L 347.473944 133.677157 
L 347.473944 38.158168 
L 342.594367 38.158168 
z
" clip-path="url(#p720e582645)" style="fill: #0000ff"/>
   </g>
   <g id="patch_248">
    <path d="M 348.693839 143.479394 
L 353.573416 143.479394 
L 353.573416 38.158154 
L 348.693839 38.158154 
z
" clip-path="url(#p720e582645)" style="fill: #0000ff"/>
   </g>
   <g id="patch_249">
    <path d="M 354.79331 132.882982 
L 359.672888 132.882982 
L 359.672888 38.158168 
L 354.79331 38.158168 
z
" clip-path="url(#p720e582645)" style="fill: #0000ff"/>
   </g>
   <g id="patch_250">
    <path d="M 360.892782 135.10483 
L 365.772359 135.10483 
L 365.772359 38.158168 
L 360.892782 38.158168 
z
" clip-path="url(#p720e582645)" style="fill: #0000ff"/>
   </g>
   <g id="patch_251">
    <path d="M 366.992254 150.54481 
L 371.871831 150.54481 
L 371.871831 38.158154 
L 366.992254 38.158154 
z
" clip-path="url(#p720e582645)" style="fill: #0000ff"/>
   </g>
   <g id="patch_252">
    <path d="M 373.091725 163.9735 
L 377.971303 163.9735 
L 377.971303 38.158168 
L 373.091725 38.158168 
z
" clip-path="url(#p720e582645)" style="fill: #0000ff"/>
   </g>
   <g id="patch_253">
    <path d="M 379.191197 145.067166 
L 384.070775 145.067166 
L 384.070775 38.158168 
L 379.191197 38.158168 
z
" clip-path="url(#p720e582645)" style="fill: #0000ff"/>
   </g>
   <g id="patch_254">
    <path d="M 385.290669 145.67728 
L 390.170246 145.67728 
L 390.170246 38.158125 
L 385.290669 38.158125 
z
" clip-path="url(#p720e582645)" style="fill: #0000ff"/>
   </g>
   <g id="patch_255">
    <path d="M 391.390141 149.876867 
L 396.269718 149.876867 
L 396.269718 38.158168 
L 391.390141 38.158168 
z
" clip-path="url(#p720e582645)" style="fill: #0000ff"/>
   </g>
   <g id="patch_256">
    <path d="M 397.489612 136.439739 
L 402.36919 136.439739 
L 402.36919 38.158183 
L 397.489612 38.158183 
z
" clip-path="url(#p720e582645)" style="fill: #0000ff"/>
   </g>
   <g id="patch_257">
    <path d="M 403.589084 128.343513 
L 408.468661 128.343513 
L 408.468661 38.158183 
L 403.589084 38.158183 
z
" clip-path="url(#p720e582645)" style="fill: #0000ff"/>
   </g>
   <g id="patch_258">
    <path d="M 409.688556 141.130797 
L 414.568133 141.130797 
L 414.568133 38.158154 
L 409.688556 38.158154 
z
" clip-path="url(#p720e582645)" style="fill: #0000ff"/>
   </g>
   <g id="patch_259">
    <path d="M 415.788027 141.279002 
L 420.667605 141.279002 
L 420.667605 38.158168 
L 415.788027 38.158168 
z
" clip-path="url(#p720e582645)" style="fill: #0000ff"/>
   </g>
   <g id="patch_260">
    <path d="M 421.887499 141.734172 
L 426.767076 141.734172 
L 426.767076 38.158183 
L 421.887499 38.158183 
z
" clip-path="url(#p720e582645)" style="fill: #0000ff"/>
   </g>
   <g id="patch_261">
    <path d="M 427.986971 140.319343 
L 432.866548 140.319343 
L 432.866548 38.158183 
L 427.986971 38.158183 
z
" clip-path="url(#p720e582645)" style="fill: #0000ff"/>
   </g>
   <g id="patch_262">
    <path d="M 434.086442 145.387898 
L 438.96602 145.387898 
L 438.96602 38.158183 
L 434.086442 38.158183 
z
" clip-path="url(#p720e582645)" style="fill: #0000ff"/>
   </g>
   <g id="patch_263">
    <path d="M 440.185914 140.256069 
L 445.065491 140.256069 
L 445.065491 38.158154 
L 440.185914 38.158154 
z
" clip-path="url(#p720e582645)" style="fill: #0000ff"/>
   </g>
   <g id="patch_264">
    <path d="M 446.285386 146.491557 
L 451.164963 146.491557 
L 451.164963 38.158168 
L 446.285386 38.158168 
z
" clip-path="url(#p720e582645)" style="fill: #0000ff"/>
   </g>
   <g id="patch_265">
    <path d="M 452.384857 149.327579 
L 457.264435 149.327579 
L 457.264435 38.158168 
L 452.384857 38.158168 
z
" clip-path="url(#p720e582645)" style="fill: #0000ff"/>
   </g>
   <g id="patch_266">
    <path d="M 458.484329 133.861966 
L 463.363906 133.861966 
L 463.363906 38.158168 
L 458.484329 38.158168 
z
" clip-path="url(#p720e582645)" style="fill: #0000ff"/>
   </g>
   <g id="patch_267">
    <path d="M 464.583801 159.907516 
L 469.463378 159.907516 
L 469.463378 38.158168 
L 464.583801 38.158168 
z
" clip-path="url(#p720e582645)" style="fill: #0000ff"/>
   </g>
   <g id="patch_268">
    <path d="M 470.683272 121.665182 
L 475.56285 121.665182 
L 475.56285 38.158154 
L 470.683272 38.158154 
z
" clip-path="url(#p720e582645)" style="fill: #0000ff"/>
   </g>
   <g id="patch_269">
    <path d="M 476.782744 134.755357 
L 481.662321 134.755357 
L 481.662321 38.158168 
L 476.782744 38.158168 
z
" clip-path="url(#p720e582645)" style="fill: #0000ff"/>
   </g>
   <g id="patch_270">
    <path d="M 482.882216 152.970159 
L 487.761793 152.970159 
L 487.761793 38.158154 
L 482.882216 38.158154 
z
" clip-path="url(#p720e582645)" style="fill: #0000ff"/>
   </g>
   <g id="patch_271">
    <path d="M 488.981687 159.157478 
L 493.861265 159.157478 
L 493.861265 38.158168 
L 488.981687 38.158168 
z
" clip-path="url(#p720e582645)" style="fill: #0000ff"/>
   </g>
   <g id="patch_272">
    <path d="M 495.081159 150.334585 
L 499.960736 150.334585 
L 499.960736 38.158154 
L 495.081159 38.158154 
z
" clip-path="url(#p720e582645)" style="fill: #0000ff"/>
   </g>
   <g id="patch_273">
    <path d="M 501.180631 178.702754 
L 506.060208 178.702754 
L 506.060208 38.158168 
L 501.180631 38.158168 
z
" clip-path="url(#p720e582645)" style="fill: #0000ff"/>
   </g>
   <g id="patch_274">
    <path d="M 507.280102 165.311648 
L 512.15968 165.311648 
L 512.15968 38.158139 
L 507.280102 38.158139 
z
" clip-path="url(#p720e582645)" style="fill: #0000ff"/>
   </g>
   <g id="patch_275">
    <path d="M 513.379574 156.366154 
L 518.259151 156.366154 
L 518.259151 38.158168 
L 513.379574 38.158168 
z
" clip-path="url(#p720e582645)" style="fill: #0000ff"/>
   </g>
   <g id="patch_276">
    <path d="M 519.479046 150.513087 
L 524.358623 150.513087 
L 524.358623 38.158168 
L 519.479046 38.158168 
z
" clip-path="url(#p720e582645)" style="fill: #0000ff"/>
   </g>
   <g id="patch_277">
    <path d="M 525.578517 138.72967 
L 530.458095 138.72967 
L 530.458095 38.158154 
L 525.578517 38.158154 
z
" clip-path="url(#p720e582645)" style="fill: #0000ff"/>
   </g>
   <g id="patch_278">
    <path d="M 531.677989 143.496746 
L 536.557566 143.496746 
L 536.557566 38.158183 
L 531.677989 38.158183 
z
" clip-path="url(#p720e582645)" style="fill: #0000ff"/>
   </g>
   <g id="patch_279">
    <path d="M 537.777461 140.670991 
L 542.657038 140.670991 
L 542.657038 38.158226 
L 537.777461 38.158226 
z
" clip-path="url(#p720e582645)" style="fill: #0000ff"/>
   </g>
   <g id="patch_280">
    <path d="M 543.876932 144.390453 
L 548.75651 144.390453 
L 548.75651 38.158168 
L 543.876932 38.158168 
z
" clip-path="url(#p720e582645)" style="fill: #0000ff"/>
   </g>
   <g id="patch_281">
    <path d="M 549.976404 134.627859 
L 554.855981 134.627859 
L 554.855981 38.158139 
L 549.976404 38.158139 
z
" clip-path="url(#p720e582645)" style="fill: #0000ff"/>
   </g>
   <g id="patch_282">
    <path d="M 556.075876 120.988699 
L 560.955453 120.988699 
L 560.955453 38.158168 
L 556.075876 38.158168 
z
" clip-path="url(#p720e582645)" style="fill: #0000ff"/>
   </g>
   <g id="patch_283">
    <path d="M 562.175347 135.482225 
L 567.054925 135.482225 
L 567.054925 38.158183 
L 562.175347 38.158183 
z
" clip-path="url(#p720e582645)" style="fill: #0000ff"/>
   </g>
   <g id="patch_284">
    <path d="M 568.274819 156.437189 
L 573.154396 156.437189 
L 573.154396 38.158168 
L 568.274819 38.158168 
z
" clip-path="url(#p720e582645)" style="fill: #0000ff"/>
   </g>
   <g id="patch_285">
    <path d="M 574.374291 147.410075 
L 579.253868 147.410075 
L 579.253868 38.158154 
L 574.374291 38.158154 
z
" clip-path="url(#p720e582645)" style="fill: #0000ff"/>
   </g>
   <g id="patch_286">
    <path d="M 580.473762 132.656687 
L 585.35334 132.656687 
L 585.35334 38.158168 
L 580.473762 38.158168 
z
" clip-path="url(#p720e582645)" style="fill: #0000ff"/>
   </g>
   <g id="patch_287">
    <path d="M 586.573234 153.868892 
L 591.452811 153.868892 
L 591.452811 38.158154 
L 586.573234 38.158154 
z
" clip-path="url(#p720e582645)" style="fill: #0000ff"/>
   </g>
   <g id="patch_288">
    <path d="M 592.672706 147.957347 
L 597.552283 147.957347 
L 597.552283 38.158154 
L 592.672706 38.158154 
z
" clip-path="url(#p720e582645)" style="fill: #0000ff"/>
   </g>
   <g id="patch_289">
    <path d="M 598.772177 164.204836 
L 603.651755 164.204836 
L 603.651755 38.158168 
L 598.772177 38.158168 
z
" clip-path="url(#p720e582645)" style="fill: #0000ff"/>
   </g>
   <g id="patch_290">
    <path d="M 604.871649 136.521358 
L 609.751226 136.521358 
L 609.751226 38.158168 
L 604.871649 38.158168 
z
" clip-path="url(#p720e582645)" style="fill: #0000ff"/>
   </g>
   <g id="patch_291">
    <path d="M 610.971121 151.354566 
L 615.850698 151.354566 
L 615.850698 38.158168 
L 610.971121 38.158168 
z
" clip-path="url(#p720e582645)" style="fill: #0000ff"/>
   </g>
   <g id="patch_292">
    <path d="M 617.070592 154.194202 
L 621.95017 154.194202 
L 621.95017 38.158154 
L 617.070592 38.158154 
z
" clip-path="url(#p720e582645)" style="fill: #0000ff"/>
   </g>
   <g id="patch_293">
    <path d="M 623.170064 156.267514 
L 628.049641 156.267514 
L 628.049641 38.158154 
L 623.170064 38.158154 
z
" clip-path="url(#p720e582645)" style="fill: #0000ff"/>
   </g>
   <g id="patch_294">
    <path d="M 629.269536 132.145515 
L 634.149113 132.145515 
L 634.149113 38.158168 
L 629.269536 38.158168 
z
" clip-path="url(#p720e582645)" style="fill: #0000ff"/>
   </g>
   <g id="patch_295">
    <path d="M 635.369007 145.050419 
L 640.248585 145.050419 
L 640.248585 38.158183 
L 635.369007 38.158183 
z
" clip-path="url(#p720e582645)" style="fill: #0000ff"/>
   </g>
   <g id="patch_296">
    <path d="M 641.468479 130.972578 
L 646.348056 130.972578 
L 646.348056 38.158154 
L 641.468479 38.158154 
z
" clip-path="url(#p720e582645)" style="fill: #0000ff"/>
   </g>
   <g id="patch_297">
    <path d="M 647.567951 138.774065 
L 652.447528 138.774065 
L 652.447528 38.158154 
L 647.567951 38.158154 
z
" clip-path="url(#p720e582645)" style="fill: #0000ff"/>
   </g>
   <g id="patch_298">
    <path d="M 653.667422 143.926183 
L 658.547 143.926183 
L 658.547 38.158154 
L 653.667422 38.158154 
z
" clip-path="url(#p720e582645)" style="fill: #0000ff"/>
   </g>
   <g id="patch_299">
    <path d="M 659.766894 152.351866 
L 664.646471 152.351866 
L 664.646471 38.158183 
L 659.766894 38.158183 
z
" clip-path="url(#p720e582645)" style="fill: #0000ff"/>
   </g>
   <g id="patch_300">
    <path d="M 665.866366 135.959196 
L 670.745943 135.959196 
L 670.745943 38.158168 
L 665.866366 38.158168 
z
" clip-path="url(#p720e582645)" style="fill: #0000ff"/>
   </g>
   <g id="patch_301">
    <path d="M 671.965837 150.636366 
L 676.845415 150.636366 
L 676.845415 38.158168 
L 671.965837 38.158168 
z
" clip-path="url(#p720e582645)" style="fill: #0000ff"/>
   </g>
   <g id="patch_302">
    <path d="M 678.065309 135.620163 
L 682.944886 135.620163 
L 682.944886 38.158168 
L 678.065309 38.158168 
z
" clip-path="url(#p720e582645)" style="fill: #0000ff"/>
   </g>
   <g id="matplotlib.axis_1">
    <g id="text_1">
     <!-- Individuals -->
     <g transform="translate(351.625 366.556562) scale(0.1 -0.1)">
      <defs>
       <path id="DejaVuSans-49" d="M 628 4666 
L 1259 4666 
L 1259 0 
L 628 0 
L 628 4666 
z
" transform="scale(0.015625)"/>
       <path id="DejaVuSans-6e" d="M 3513 2113 
L 3513 0 
L 2938 0 
L 2938 2094 
Q 2938 2591 2744 2837 
Q 2550 3084 2163 3084 
Q 1697 3084 1428 2787 
Q 1159 2491 1159 1978 
L 1159 0 
L 581 0 
L 581 3500 
L 1159 3500 
L 1159 2956 
Q 1366 3272 1645 3428 
Q 1925 3584 2291 3584 
Q 2894 3584 3203 3211 
Q 3513 2838 3513 2113 
z
" transform="scale(0.015625)"/>
       <path id="DejaVuSans-64" d="M 2906 2969 
L 2906 4863 
L 3481 4863 
L 3481 0 
L 2906 0 
L 2906 525 
Q 2725 213 2448 61 
Q 2172 -91 1784 -91 
Q 1150 -91 751 415 
Q 353 922 353 1747 
Q 353 2572 751 3078 
Q 1150 3584 1784 3584 
Q 2172 3584 2448 3432 
Q 2725 3281 2906 2969 
z
M 947 1747 
Q 947 1113 1208 752 
Q 1469 391 1925 391 
Q 2381 391 2643 752 
Q 2906 1113 2906 1747 
Q 2906 2381 2643 2742 
Q 2381 3103 1925 3103 
Q 1469 3103 1208 2742 
Q 947 2381 947 1747 
z
" transform="scale(0.015625)"/>
       <path id="DejaVuSans-69" d="M 603 3500 
L 1178 3500 
L 1178 0 
L 603 0 
L 603 3500 
z
M 603 4863 
L 1178 4863 
L 1178 4134 
L 603 4134 
L 603 4863 
z
" transform="scale(0.015625)"/>
       <path id="DejaVuSans-76" d="M 191 3500 
L 800 3500 
L 1894 563 
L 2988 3500 
L 3597 3500 
L 2284 0 
L 1503 0 
L 191 3500 
z
" transform="scale(0.015625)"/>
       <path id="DejaVuSans-75" d="M 544 1381 
L 544 3500 
L 1119 3500 
L 1119 1403 
Q 1119 906 1312 657 
Q 1506 409 1894 409 
Q 2359 409 2629 706 
Q 2900 1003 2900 1516 
L 2900 3500 
L 3475 3500 
L 3475 0 
L 2900 0 
L 2900 538 
Q 2691 219 2414 64 
Q 2138 -91 1772 -91 
Q 1169 -91 856 284 
Q 544 659 544 1381 
z
M 1991 3584 
L 1991 3584 
z
" transform="scale(0.015625)"/>
       <path id="DejaVuSans-61" d="M 2194 1759 
Q 1497 1759 1228 1600 
Q 959 1441 959 1056 
Q 959 750 1161 570 
Q 1363 391 1709 391 
Q 2188 391 2477 730 
Q 2766 1069 2766 1631 
L 2766 1759 
L 2194 1759 
z
M 3341 1997 
L 3341 0 
L 2766 0 
L 2766 531 
Q 2569 213 2275 61 
Q 1981 -91 1556 -91 
Q 1019 -91 701 211 
Q 384 513 384 1019 
Q 384 1609 779 1909 
Q 1175 2209 1959 2209 
L 2766 2209 
L 2766 2266 
Q 2766 2663 2505 2880 
Q 2244 3097 1772 3097 
Q 1472 3097 1187 3025 
Q 903 2953 641 2809 
L 641 3341 
Q 956 3463 1253 3523 
Q 1550 3584 1831 3584 
Q 2591 3584 2966 3190 
Q 3341 2797 3341 1997 
z
" transform="scale(0.015625)"/>
       <path id="DejaVuSans-6c" d="M 603 4863 
L 1178 4863 
L 1178 0 
L 603 0 
L 603 4863 
z
" transform="scale(0.015625)"/>
       <path id="DejaVuSans-73" d="M 2834 3397 
L 2834 2853 
Q 2591 2978 2328 3040 
Q 2066 3103 1784 3103 
Q 1356 3103 1142 2972 
Q 928 2841 928 2578 
Q 928 2378 1081 2264 
Q 1234 2150 1697 2047 
L 1894 2003 
Q 2506 1872 2764 1633 
Q 3022 1394 3022 966 
Q 3022 478 2636 193 
Q 2250 -91 1575 -91 
Q 1294 -91 989 -36 
Q 684 19 347 128 
L 347 722 
Q 666 556 975 473 
Q 1284 391 1588 391 
Q 1994 391 2212 530 
Q 2431 669 2431 922 
Q 2431 1156 2273 1281 
Q 2116 1406 1581 1522 
L 1381 1569 
Q 847 1681 609 1914 
Q 372 2147 372 2553 
Q 372 3047 722 3315 
Q 1072 3584 1716 3584 
Q 2034 3584 2315 3537 
Q 2597 3491 2834 3397 
z
" transform="scale(0.015625)"/>
      </defs>
      <use xlink:href="#DejaVuSans-49"/>
      <use xlink:href="#DejaVuSans-6e" transform="translate(29.492188 0)"/>
      <use xlink:href="#DejaVuSans-64" transform="translate(92.871094 0)"/>
      <use xlink:href="#DejaVuSans-69" transform="translate(156.347656 0)"/>
      <use xlink:href="#DejaVuSans-76" transform="translate(184.130859 0)"/>
      <use xlink:href="#DejaVuSans-69" transform="translate(243.310547 0)"/>
      <use xlink:href="#DejaVuSans-64" transform="translate(271.09375 0)"/>
      <use xlink:href="#DejaVuSans-75" transform="translate(334.570312 0)"/>
      <use xlink:href="#DejaVuSans-61" transform="translate(397.949219 0)"/>
      <use xlink:href="#DejaVuSans-6c" transform="translate(459.228516 0)"/>
      <use xlink:href="#DejaVuSans-73" transform="translate(487.011719 0)"/>
     </g>
    </g>
   </g>
   <g id="matplotlib.axis_2">
    <g id="ytick_1">
     <g id="line2d_1">
      <defs>
       <path id="m2859c82f5b" d="M 0 0 
L -3.5 0 
" style="stroke: #000000; stroke-width: 0.8"/>
      </defs>
      <g>
       <use xlink:href="#m2859c82f5b" x="43.78125" y="354.958125" style="stroke: #000000; stroke-width: 0.8"/>
      </g>
     </g>
     <g id="text_2">
      <!-- 0.0 -->
      <g transform="translate(20.878125 358.757344) scale(0.1 -0.1)">
       <defs>
        <path id="DejaVuSans-30" d="M 2034 4250 
Q 1547 4250 1301 3770 
Q 1056 3291 1056 2328 
Q 1056 1369 1301 889 
Q 1547 409 2034 409 
Q 2525 409 2770 889 
Q 3016 1369 3016 2328 
Q 3016 3291 2770 3770 
Q 2525 4250 2034 4250 
z
M 2034 4750 
Q 2819 4750 3233 4129 
Q 3647 3509 3647 2328 
Q 3647 1150 3233 529 
Q 2819 -91 2034 -91 
Q 1250 -91 836 529 
Q 422 1150 422 2328 
Q 422 3509 836 4129 
Q 1250 4750 2034 4750 
z
" transform="scale(0.015625)"/>
        <path id="DejaVuSans-2e" d="M 684 794 
L 1344 794 
L 1344 0 
L 684 0 
L 684 794 
z
" transform="scale(0.015625)"/>
       </defs>
       <use xlink:href="#DejaVuSans-30"/>
       <use xlink:href="#DejaVuSans-2e" transform="translate(63.623047 0)"/>
       <use xlink:href="#DejaVuSans-30" transform="translate(95.410156 0)"/>
      </g>
     </g>
    </g>
    <g id="ytick_2">
     <g id="line2d_2">
      <g>
       <use xlink:href="#m2859c82f5b" x="43.78125" y="291.598134" style="stroke: #000000; stroke-width: 0.8"/>
      </g>
     </g>
     <g id="text_3">
      <!-- 0.2 -->
      <g transform="translate(20.878125 295.397352) scale(0.1 -0.1)">
       <defs>
        <path id="DejaVuSans-32" d="M 1228 531 
L 3431 531 
L 3431 0 
L 469 0 
L 469 531 
Q 828 903 1448 1529 
Q 2069 2156 2228 2338 
Q 2531 2678 2651 2914 
Q 2772 3150 2772 3378 
Q 2772 3750 2511 3984 
Q 2250 4219 1831 4219 
Q 1534 4219 1204 4116 
Q 875 4013 500 3803 
L 500 4441 
Q 881 4594 1212 4672 
Q 1544 4750 1819 4750 
Q 2544 4750 2975 4387 
Q 3406 4025 3406 3419 
Q 3406 3131 3298 2873 
Q 3191 2616 2906 2266 
Q 2828 2175 2409 1742 
Q 1991 1309 1228 531 
z
" transform="scale(0.015625)"/>
       </defs>
       <use xlink:href="#DejaVuSans-30"/>
       <use xlink:href="#DejaVuSans-2e" transform="translate(63.623047 0)"/>
       <use xlink:href="#DejaVuSans-32" transform="translate(95.410156 0)"/>
      </g>
     </g>
    </g>
    <g id="ytick_3">
     <g id="line2d_3">
      <g>
       <use xlink:href="#m2859c82f5b" x="43.78125" y="228.238142" style="stroke: #000000; stroke-width: 0.8"/>
      </g>
     </g>
     <g id="text_4">
      <!-- 0.4 -->
      <g transform="translate(20.878125 232.037361) scale(0.1 -0.1)">
       <defs>
        <path id="DejaVuSans-34" d="M 2419 4116 
L 825 1625 
L 2419 1625 
L 2419 4116 
z
M 2253 4666 
L 3047 4666 
L 3047 1625 
L 3713 1625 
L 3713 1100 
L 3047 1100 
L 3047 0 
L 2419 0 
L 2419 1100 
L 313 1100 
L 313 1709 
L 2253 4666 
z
" transform="scale(0.015625)"/>
       </defs>
       <use xlink:href="#DejaVuSans-30"/>
       <use xlink:href="#DejaVuSans-2e" transform="translate(63.623047 0)"/>
       <use xlink:href="#DejaVuSans-34" transform="translate(95.410156 0)"/>
      </g>
     </g>
    </g>
    <g id="ytick_4">
     <g id="line2d_4">
      <g>
       <use xlink:href="#m2859c82f5b" x="43.78125" y="164.878151" style="stroke: #000000; stroke-width: 0.8"/>
      </g>
     </g>
     <g id="text_5">
      <!-- 0.6 -->
      <g transform="translate(20.878125 168.67737) scale(0.1 -0.1)">
       <defs>
        <path id="DejaVuSans-36" d="M 2113 2584 
Q 1688 2584 1439 2293 
Q 1191 2003 1191 1497 
Q 1191 994 1439 701 
Q 1688 409 2113 409 
Q 2538 409 2786 701 
Q 3034 994 3034 1497 
Q 3034 2003 2786 2293 
Q 2538 2584 2113 2584 
z
M 3366 4563 
L 3366 3988 
Q 3128 4100 2886 4159 
Q 2644 4219 2406 4219 
Q 1781 4219 1451 3797 
Q 1122 3375 1075 2522 
Q 1259 2794 1537 2939 
Q 1816 3084 2150 3084 
Q 2853 3084 3261 2657 
Q 3669 2231 3669 1497 
Q 3669 778 3244 343 
Q 2819 -91 2113 -91 
Q 1303 -91 875 529 
Q 447 1150 447 2328 
Q 447 3434 972 4092 
Q 1497 4750 2381 4750 
Q 2619 4750 2861 4703 
Q 3103 4656 3366 4563 
z
" transform="scale(0.015625)"/>
       </defs>
       <use xlink:href="#DejaVuSans-30"/>
       <use xlink:href="#DejaVuSans-2e" transform="translate(63.623047 0)"/>
       <use xlink:href="#DejaVuSans-36" transform="translate(95.410156 0)"/>
      </g>
     </g>
    </g>
    <g id="ytick_5">
     <g id="line2d_5">
      <g>
       <use xlink:href="#m2859c82f5b" x="43.78125" y="101.51816" style="stroke: #000000; stroke-width: 0.8"/>
      </g>
     </g>
     <g id="text_6">
      <!-- 0.8 -->
      <g transform="translate(20.878125 105.317378) scale(0.1 -0.1)">
       <defs>
        <path id="DejaVuSans-38" d="M 2034 2216 
Q 1584 2216 1326 1975 
Q 1069 1734 1069 1313 
Q 1069 891 1326 650 
Q 1584 409 2034 409 
Q 2484 409 2743 651 
Q 3003 894 3003 1313 
Q 3003 1734 2745 1975 
Q 2488 2216 2034 2216 
z
M 1403 2484 
Q 997 2584 770 2862 
Q 544 3141 544 3541 
Q 544 4100 942 4425 
Q 1341 4750 2034 4750 
Q 2731 4750 3128 4425 
Q 3525 4100 3525 3541 
Q 3525 3141 3298 2862 
Q 3072 2584 2669 2484 
Q 3125 2378 3379 2068 
Q 3634 1759 3634 1313 
Q 3634 634 3220 271 
Q 2806 -91 2034 -91 
Q 1263 -91 848 271 
Q 434 634 434 1313 
Q 434 1759 690 2068 
Q 947 2378 1403 2484 
z
M 1172 3481 
Q 1172 3119 1398 2916 
Q 1625 2713 2034 2713 
Q 2441 2713 2670 2916 
Q 2900 3119 2900 3481 
Q 2900 3844 2670 4047 
Q 2441 4250 2034 4250 
Q 1625 4250 1398 4047 
Q 1172 3844 1172 3481 
z
" transform="scale(0.015625)"/>
       </defs>
       <use xlink:href="#DejaVuSans-30"/>
       <use xlink:href="#DejaVuSans-2e" transform="translate(63.623047 0)"/>
       <use xlink:href="#DejaVuSans-38" transform="translate(95.410156 0)"/>
      </g>
     </g>
    </g>
    <g id="ytick_6">
     <g id="line2d_6">
      <g>
       <use xlink:href="#m2859c82f5b" x="43.78125" y="38.158168" style="stroke: #000000; stroke-width: 0.8"/>
      </g>
     </g>
     <g id="text_7">
      <!-- 1.0 -->
      <g transform="translate(20.878125 41.957387) scale(0.1 -0.1)">
       <defs>
        <path id="DejaVuSans-31" d="M 794 531 
L 1825 531 
L 1825 4091 
L 703 3866 
L 703 4441 
L 1819 4666 
L 2450 4666 
L 2450 531 
L 3481 531 
L 3481 0 
L 794 0 
L 794 531 
z
" transform="scale(0.015625)"/>
       </defs>
       <use xlink:href="#DejaVuSans-31"/>
       <use xlink:href="#DejaVuSans-2e" transform="translate(63.623047 0)"/>
       <use xlink:href="#DejaVuSans-30" transform="translate(95.410156 0)"/>
      </g>
     </g>
    </g>
    <g id="text_8">
     <!-- Ancestry Proportion -->
     <g transform="translate(14.798438 238.017812) rotate(-90) scale(0.1 -0.1)">
      <defs>
       <path id="DejaVuSans-41" d="M 2188 4044 
L 1331 1722 
L 3047 1722 
L 2188 4044 
z
M 1831 4666 
L 2547 4666 
L 4325 0 
L 3669 0 
L 3244 1197 
L 1141 1197 
L 716 0 
L 50 0 
L 1831 4666 
z
" transform="scale(0.015625)"/>
       <path id="DejaVuSans-63" d="M 3122 3366 
L 3122 2828 
Q 2878 2963 2633 3030 
Q 2388 3097 2138 3097 
Q 1578 3097 1268 2742 
Q 959 2388 959 1747 
Q 959 1106 1268 751 
Q 1578 397 2138 397 
Q 2388 397 2633 464 
Q 2878 531 3122 666 
L 3122 134 
Q 2881 22 2623 -34 
Q 2366 -91 2075 -91 
Q 1284 -91 818 406 
Q 353 903 353 1747 
Q 353 2603 823 3093 
Q 1294 3584 2113 3584 
Q 2378 3584 2631 3529 
Q 2884 3475 3122 3366 
z
" transform="scale(0.015625)"/>
       <path id="DejaVuSans-65" d="M 3597 1894 
L 3597 1613 
L 953 1613 
Q 991 1019 1311 708 
Q 1631 397 2203 397 
Q 2534 397 2845 478 
Q 3156 559 3463 722 
L 3463 178 
Q 3153 47 2828 -22 
Q 2503 -91 2169 -91 
Q 1331 -91 842 396 
Q 353 884 353 1716 
Q 353 2575 817 3079 
Q 1281 3584 2069 3584 
Q 2775 3584 3186 3129 
Q 3597 2675 3597 1894 
z
M 3022 2063 
Q 3016 2534 2758 2815 
Q 2500 3097 2075 3097 
Q 1594 3097 1305 2825 
Q 1016 2553 972 2059 
L 3022 2063 
z
" transform="scale(0.015625)"/>
       <path id="DejaVuSans-74" d="M 1172 4494 
L 1172 3500 
L 2356 3500 
L 2356 3053 
L 1172 3053 
L 1172 1153 
Q 1172 725 1289 603 
Q 1406 481 1766 481 
L 2356 481 
L 2356 0 
L 1766 0 
Q 1100 0 847 248 
Q 594 497 594 1153 
L 594 3053 
L 172 3053 
L 172 3500 
L 594 3500 
L 594 4494 
L 1172 4494 
z
" transform="scale(0.015625)"/>
       <path id="DejaVuSans-72" d="M 2631 2963 
Q 2534 3019 2420 3045 
Q 2306 3072 2169 3072 
Q 1681 3072 1420 2755 
Q 1159 2438 1159 1844 
L 1159 0 
L 581 0 
L 581 3500 
L 1159 3500 
L 1159 2956 
Q 1341 3275 1631 3429 
Q 1922 3584 2338 3584 
Q 2397 3584 2469 3576 
Q 2541 3569 2628 3553 
L 2631 2963 
z
" transform="scale(0.015625)"/>
       <path id="DejaVuSans-79" d="M 2059 -325 
Q 1816 -950 1584 -1140 
Q 1353 -1331 966 -1331 
L 506 -1331 
L 506 -850 
L 844 -850 
Q 1081 -850 1212 -737 
Q 1344 -625 1503 -206 
L 1606 56 
L 191 3500 
L 800 3500 
L 1894 763 
L 2988 3500 
L 3597 3500 
L 2059 -325 
z
" transform="scale(0.015625)"/>
       <path id="DejaVuSans-20" transform="scale(0.015625)"/>
       <path id="DejaVuSans-50" d="M 1259 4147 
L 1259 2394 
L 2053 2394 
Q 2494 2394 2734 2622 
Q 2975 2850 2975 3272 
Q 2975 3691 2734 3919 
Q 2494 4147 2053 4147 
L 1259 4147 
z
M 628 4666 
L 2053 4666 
Q 2838 4666 3239 4311 
Q 3641 3956 3641 3272 
Q 3641 2581 3239 2228 
Q 2838 1875 2053 1875 
L 1259 1875 
L 1259 0 
L 628 0 
L 628 4666 
z
" transform="scale(0.015625)"/>
       <path id="DejaVuSans-6f" d="M 1959 3097 
Q 1497 3097 1228 2736 
Q 959 2375 959 1747 
Q 959 1119 1226 758 
Q 1494 397 1959 397 
Q 2419 397 2687 759 
Q 2956 1122 2956 1747 
Q 2956 2369 2687 2733 
Q 2419 3097 1959 3097 
z
M 1959 3584 
Q 2709 3584 3137 3096 
Q 3566 2609 3566 1747 
Q 3566 888 3137 398 
Q 2709 -91 1959 -91 
Q 1206 -91 779 398 
Q 353 888 353 1747 
Q 353 2609 779 3096 
Q 1206 3584 1959 3584 
z
" transform="scale(0.015625)"/>
       <path id="DejaVuSans-70" d="M 1159 525 
L 1159 -1331 
L 581 -1331 
L 581 3500 
L 1159 3500 
L 1159 2969 
Q 1341 3281 1617 3432 
Q 1894 3584 2278 3584 
Q 2916 3584 3314 3078 
Q 3713 2572 3713 1747 
Q 3713 922 3314 415 
Q 2916 -91 2278 -91 
Q 1894 -91 1617 61 
Q 1341 213 1159 525 
z
M 3116 1747 
Q 3116 2381 2855 2742 
Q 2594 3103 2138 3103 
Q 1681 3103 1420 2742 
Q 1159 2381 1159 1747 
Q 1159 1113 1420 752 
Q 1681 391 2138 391 
Q 2594 391 2855 752 
Q 3116 1113 3116 1747 
z
" transform="scale(0.015625)"/>
      </defs>
      <use xlink:href="#DejaVuSans-41"/>
      <use xlink:href="#DejaVuSans-6e" transform="translate(68.408203 0)"/>
      <use xlink:href="#DejaVuSans-63" transform="translate(131.787109 0)"/>
      <use xlink:href="#DejaVuSans-65" transform="translate(186.767578 0)"/>
      <use xlink:href="#DejaVuSans-73" transform="translate(248.291016 0)"/>
      <use xlink:href="#DejaVuSans-74" transform="translate(300.390625 0)"/>
      <use xlink:href="#DejaVuSans-72" transform="translate(339.599609 0)"/>
      <use xlink:href="#DejaVuSans-79" transform="translate(380.712891 0)"/>
      <use xlink:href="#DejaVuSans-20" transform="translate(439.892578 0)"/>
      <use xlink:href="#DejaVuSans-50" transform="translate(471.679688 0)"/>
      <use xlink:href="#DejaVuSans-72" transform="translate(530.232422 0)"/>
      <use xlink:href="#DejaVuSans-6f" transform="translate(569.095703 0)"/>
      <use xlink:href="#DejaVuSans-70" transform="translate(630.277344 0)"/>
      <use xlink:href="#DejaVuSans-6f" transform="translate(693.753906 0)"/>
      <use xlink:href="#DejaVuSans-72" transform="translate(754.935547 0)"/>
      <use xlink:href="#DejaVuSans-74" transform="translate(796.048828 0)"/>
      <use xlink:href="#DejaVuSans-69" transform="translate(835.257812 0)"/>
      <use xlink:href="#DejaVuSans-6f" transform="translate(863.041016 0)"/>
      <use xlink:href="#DejaVuSans-6e" transform="translate(924.222656 0)"/>
     </g>
    </g>
   </g>
   <g id="patch_303">
    <path d="M 43.78125 354.958125 
L 43.78125 22.318125 
" style="fill: none; stroke: #000000; stroke-width: 0.8; stroke-linejoin: miter; stroke-linecap: square"/>
   </g>
   <g id="patch_304">
    <path d="M 713.38125 354.958125 
L 713.38125 22.318125 
" style="fill: none; stroke: #000000; stroke-width: 0.8; stroke-linejoin: miter; stroke-linecap: square"/>
   </g>
   <g id="patch_305">
    <path d="M 43.78125 354.958125 
L 713.38125 354.958125 
" style="fill: none; stroke: #000000; stroke-width: 0.8; stroke-linejoin: miter; stroke-linecap: square"/>
   </g>
   <g id="patch_306">
    <path d="M 43.78125 22.318125 
L 713.38125 22.318125 
" style="fill: none; stroke: #000000; stroke-width: 0.8; stroke-linejoin: miter; stroke-linecap: square"/>
   </g>
   <g id="text_9">
    <!-- Global Ancestry Proportions -->
    <g transform="translate(295.153125 16.318125) scale(0.12 -0.12)">
     <defs>
      <path id="DejaVuSans-47" d="M 3809 666 
L 3809 1919 
L 2778 1919 
L 2778 2438 
L 4434 2438 
L 4434 434 
Q 4069 175 3628 42 
Q 3188 -91 2688 -91 
Q 1594 -91 976 548 
Q 359 1188 359 2328 
Q 359 3472 976 4111 
Q 1594 4750 2688 4750 
Q 3144 4750 3555 4637 
Q 3966 4525 4313 4306 
L 4313 3634 
Q 3963 3931 3569 4081 
Q 3175 4231 2741 4231 
Q 1884 4231 1454 3753 
Q 1025 3275 1025 2328 
Q 1025 1384 1454 906 
Q 1884 428 2741 428 
Q 3075 428 3337 486 
Q 3600 544 3809 666 
z
" transform="scale(0.015625)"/>
      <path id="DejaVuSans-62" d="M 3116 1747 
Q 3116 2381 2855 2742 
Q 2594 3103 2138 3103 
Q 1681 3103 1420 2742 
Q 1159 2381 1159 1747 
Q 1159 1113 1420 752 
Q 1681 391 2138 391 
Q 2594 391 2855 752 
Q 3116 1113 3116 1747 
z
M 1159 2969 
Q 1341 3281 1617 3432 
Q 1894 3584 2278 3584 
Q 2916 3584 3314 3078 
Q 3713 2572 3713 1747 
Q 3713 922 3314 415 
Q 2916 -91 2278 -91 
Q 1894 -91 1617 61 
Q 1341 213 1159 525 
L 1159 0 
L 581 0 
L 581 4863 
L 1159 4863 
L 1159 2969 
z
" transform="scale(0.015625)"/>
     </defs>
     <use xlink:href="#DejaVuSans-47"/>
     <use xlink:href="#DejaVuSans-6c" transform="translate(77.490234 0)"/>
     <use xlink:href="#DejaVuSans-6f" transform="translate(105.273438 0)"/>
     <use xlink:href="#DejaVuSans-62" transform="translate(166.455078 0)"/>
     <use xlink:href="#DejaVuSans-61" transform="translate(229.931641 0)"/>
     <use xlink:href="#DejaVuSans-6c" transform="translate(291.210938 0)"/>
     <use xlink:href="#DejaVuSans-20" transform="translate(318.994141 0)"/>
     <use xlink:href="#DejaVuSans-41" transform="translate(350.78125 0)"/>
     <use xlink:href="#DejaVuSans-6e" transform="translate(419.189453 0)"/>
     <use xlink:href="#DejaVuSans-63" transform="translate(482.568359 0)"/>
     <use xlink:href="#DejaVuSans-65" transform="translate(537.548828 0)"/>
     <use xlink:href="#DejaVuSans-73" transform="translate(599.072266 0)"/>
     <use xlink:href="#DejaVuSans-74" transform="translate(651.171875 0)"/>
     <use xlink:href="#DejaVuSans-72" transform="translate(690.380859 0)"/>
     <use xlink:href="#DejaVuSans-79" transform="translate(731.494141 0)"/>
     <use xlink:href="#DejaVuSans-20" transform="translate(790.673828 0)"/>
     <use xlink:href="#DejaVuSans-50" transform="translate(822.460938 0)"/>
     <use xlink:href="#DejaVuSans-72" transform="translate(881.013672 0)"/>
     <use xlink:href="#DejaVuSans-6f" transform="translate(919.876953 0)"/>
     <use xlink:href="#DejaVuSans-70" transform="translate(981.058594 0)"/>
     <use xlink:href="#DejaVuSans-6f" transform="translate(1044.535156 0)"/>
     <use xlink:href="#DejaVuSans-72" transform="translate(1105.716797 0)"/>
     <use xlink:href="#DejaVuSans-74" transform="translate(1146.830078 0)"/>
     <use xlink:href="#DejaVuSans-69" transform="translate(1186.039062 0)"/>
     <use xlink:href="#DejaVuSans-6f" transform="translate(1213.822266 0)"/>
     <use xlink:href="#DejaVuSans-6e" transform="translate(1275.003906 0)"/>
     <use xlink:href="#DejaVuSans-73" transform="translate(1338.382812 0)"/>
    </g>
   </g>
   <g id="legend_1">
    <g id="patch_307">
     <path d="M 733.77325 89.030625 
L 790.306063 89.030625 
Q 792.306063 89.030625 792.306063 87.030625 
L 792.306063 29.318125 
Q 792.306063 27.318125 790.306063 27.318125 
L 733.77325 27.318125 
Q 731.77325 27.318125 731.77325 29.318125 
L 731.77325 87.030625 
Q 731.77325 89.030625 733.77325 89.030625 
z
" style="fill: #ffffff; opacity: 0.8; stroke: #cccccc; stroke-linejoin: miter"/>
    </g>
    <g id="text_10">
     <!-- Population -->
     <g transform="translate(735.77325 38.916562) scale(0.1 -0.1)">
      <use xlink:href="#DejaVuSans-50"/>
      <use xlink:href="#DejaVuSans-6f" transform="translate(56.677734 0)"/>
      <use xlink:href="#DejaVuSans-70" transform="translate(117.859375 0)"/>
      <use xlink:href="#DejaVuSans-75" transform="translate(181.335938 0)"/>
      <use xlink:href="#DejaVuSans-6c" transform="translate(244.714844 0)"/>
      <use xlink:href="#DejaVuSans-61" transform="translate(272.498047 0)"/>
      <use xlink:href="#DejaVuSans-74" transform="translate(333.777344 0)"/>
      <use xlink:href="#DejaVuSans-69" transform="translate(372.986328 0)"/>
      <use xlink:href="#DejaVuSans-6f" transform="translate(400.769531 0)"/>
      <use xlink:href="#DejaVuSans-6e" transform="translate(461.951172 0)"/>
     </g>
    </g>
    <g id="patch_308">
     <path d="M 737.746688 53.594687 
L 757.746688 53.594687 
L 757.746688 46.594687 
L 737.746688 46.594687 
z
" style="fill: #ff0000"/>
    </g>
    <g id="text_11">
     <!-- AFR -->
     <g transform="translate(765.746688 53.594687) scale(0.1 -0.1)">
      <defs>
       <path id="DejaVuSans-46" d="M 628 4666 
L 3309 4666 
L 3309 4134 
L 1259 4134 
L 1259 2759 
L 3109 2759 
L 3109 2228 
L 1259 2228 
L 1259 0 
L 628 0 
L 628 4666 
z
" transform="scale(0.015625)"/>
       <path id="DejaVuSans-52" d="M 2841 2188 
Q 3044 2119 3236 1894 
Q 3428 1669 3622 1275 
L 4263 0 
L 3584 0 
L 2988 1197 
Q 2756 1666 2539 1819 
Q 2322 1972 1947 1972 
L 1259 1972 
L 1259 0 
L 628 0 
L 628 4666 
L 2053 4666 
Q 2853 4666 3247 4331 
Q 3641 3997 3641 3322 
Q 3641 2881 3436 2590 
Q 3231 2300 2841 2188 
z
M 1259 4147 
L 1259 2491 
L 2053 2491 
Q 2509 2491 2742 2702 
Q 2975 2913 2975 3322 
Q 2975 3731 2742 3939 
Q 2509 4147 2053 4147 
L 1259 4147 
z
" transform="scale(0.015625)"/>
      </defs>
      <use xlink:href="#DejaVuSans-41"/>
      <use xlink:href="#DejaVuSans-46" transform="translate(68.408203 0)"/>
      <use xlink:href="#DejaVuSans-52" transform="translate(125.927734 0)"/>
     </g>
    </g>
    <g id="patch_309">
     <path d="M 737.746688 68.272812 
L 757.746688 68.272812 
L 757.746688 61.272812 
L 737.746688 61.272812 
z
" style="fill: #008000"/>
    </g>
    <g id="text_12">
     <!-- PUR -->
     <g transform="translate(765.746688 68.272812) scale(0.1 -0.1)">
      <defs>
       <path id="DejaVuSans-55" d="M 556 4666 
L 1191 4666 
L 1191 1831 
Q 1191 1081 1462 751 
Q 1734 422 2344 422 
Q 2950 422 3222 751 
Q 3494 1081 3494 1831 
L 3494 4666 
L 4128 4666 
L 4128 1753 
Q 4128 841 3676 375 
Q 3225 -91 2344 -91 
Q 1459 -91 1007 375 
Q 556 841 556 1753 
L 556 4666 
z
" transform="scale(0.015625)"/>
      </defs>
      <use xlink:href="#DejaVuSans-50"/>
      <use xlink:href="#DejaVuSans-55" transform="translate(60.302734 0)"/>
      <use xlink:href="#DejaVuSans-52" transform="translate(133.496094 0)"/>
     </g>
    </g>
    <g id="patch_310">
     <path d="M 737.746688 82.950937 
L 757.746688 82.950937 
L 757.746688 75.950937 
L 737.746688 75.950937 
z
" style="fill: #0000ff"/>
    </g>
    <g id="text_13">
     <!-- EUR -->
     <g transform="translate(765.746688 82.950937) scale(0.1 -0.1)">
      <defs>
       <path id="DejaVuSans-45" d="M 628 4666 
L 3578 4666 
L 3578 4134 
L 1259 4134 
L 1259 2753 
L 3481 2753 
L 3481 2222 
L 1259 2222 
L 1259 531 
L 3634 531 
L 3634 0 
L 628 0 
L 628 4666 
z
" transform="scale(0.015625)"/>
      </defs>
      <use xlink:href="#DejaVuSans-45"/>
      <use xlink:href="#DejaVuSans-55" transform="translate(63.183594 0)"/>
      <use xlink:href="#DejaVuSans-52" transform="translate(136.376953 0)"/>
     </g>
    </g>
   </g>
  </g>
 </g>
 <defs>
  <clipPath id="p720e582645">
   <rect x="43.78125" y="22.318125" width="669.6" height="332.64"/>
  </clipPath>
 </defs>
</svg>
